0
SECTION
2
HEADER
9
$INSUNITS
70
4
0
ENDSEC
0
SECTION
2
TABLES
0
TABLE
2
LTYPE
0
LTYPE
72
65
70
64
2
CONTINUOUS
3
______
73
0
40
0
0
ENDTAB
0
TABLE
2
LAYER
0
ENDTAB
0
ENDSEC
0
SECTION
2
ENTITIES
0
LINE
8
0
10
-7
20
-7
11
7
21
-7
0
LINE
8
0
10
7
20
-7
11
7
21
7
0
LINE
8
0
10
7
20
7
11
-7
21
7
0
LINE
8
0
10
-7
20
7
11
-7
21
-7
0
LINE
8
0
10
-7
20
12
11
7
21
12
0
LINE
8
0
10
7
20
12
11
7
21
26
0
LINE
8
0
10
7
20
26
11
-7
21
26
0
LINE
8
0
10
-7
20
26
11
-7
21
12
0
LINE
8
0
10
-7
20
31
11
7
21
31
0
LINE
8
0
10
7
20
31
11
7
21
45
0
LINE
8
0
10
7
20
45
11
-7
21
45
0
LINE
8
0
10
-7
20
45
11
-7
21
31
0
LINE
8
0
10
-7
20
50
11
7
21
50
0
LINE
8
0
10
7
20
50
11
7
21
64
0
LINE
8
0
10
7
20
64
11
-7
21
64
0
LINE
8
0
10
-7
20
64
11
-7
21
50
0
LINE
8
0
10
12
20
-7
11
26
21
-7
0
LINE
8
0
10
26
20
-7
11
26
21
7
0
LINE
8
0
10
26
20
7
11
12
21
7
0
LINE
8
0
10
12
20
7
11
12
21
-7
0
LINE
8
0
10
12
20
12
11
26
21
12
0
LINE
8
0
10
26
20
12
11
26
21
26
0
LINE
8
0
10
26
20
26
11
12
21
26
0
LINE
8
0
10
12
20
26
11
12
21
12
0
LINE
8
0
10
12
20
31
11
26
21
31
0
LINE
8
0
10
26
20
31
11
26
21
45
0
LINE
8
0
10
26
20
45
11
12
21
45
0
LINE
8
0
10
12
20
45
11
12
21
31
0
LINE
8
0
10
12
20
50
11
26
21
50
0
LINE
8
0
10
26
20
50
11
26
21
64
0
LINE
8
0
10
26
20
64
11
12
21
64
0
LINE
8
0
10
12
20
64
11
12
21
50
0
LINE
8
0
10
31
20
-2
11
45
21
-2
0
LINE
8
0
10
45
20
-2
11
45
21
12
0
LINE
8
0
10
45
20
12
11
31
21
12
0
LINE
8
0
10
31
20
12
11
31
21
-2
0
LINE
8
0
10
31
20
17
11
45
21
17
0
LINE
8
0
10
45
20
17
11
45
21
31
0
LINE
8
0
10
45
20
31
11
31
21
31
0
LINE
8
0
10
31
20
31
11
31
21
17
0
LINE
8
0
10
31
20
36
11
45
21
36
0
LINE
8
0
10
45
20
36
11
45
21
50
0
LINE
8
0
10
45
20
50
11
31
21
50
0
LINE
8
0
10
31
20
50
11
31
21
36
0
LINE
8
0
10
31
20
55
11
45
21
55
0
LINE
8
0
10
45
20
55
11
45
21
69
0
LINE
8
0
10
45
20
69
11
31
21
69
0
LINE
8
0
10
31
20
69
11
31
21
55
0
LINE
8
0
10
50
20
3
11
64
21
3
0
LINE
8
0
10
64
20
3
11
64
21
17
0
LINE
8
0
10
64
20
17
11
50
21
17
0
LINE
8
0
10
50
20
17
11
50
21
3
0
LINE
8
0
10
50
20
22
11
64
21
22
0
LINE
8
0
10
64
20
22
11
64
21
36
0
LINE
8
0
10
64
20
36
11
50
21
36
0
LINE
8
0
10
50
20
36
11
50
21
22
0
LINE
8
0
10
50
20
41
11
64
21
41
0
LINE
8
0
10
64
20
41
11
64
21
55
0
LINE
8
0
10
64
20
55
11
50
21
55
0
LINE
8
0
10
50
20
55
11
50
21
41
0
LINE
8
0
10
50
20
60
11
64
21
60
0
LINE
8
0
10
64
20
60
11
64
21
74
0
LINE
8
0
10
64
20
74
11
50
21
74
0
LINE
8
0
10
50
20
74
11
50
21
60
0
LINE
8
0
10
69
20
-2
11
83
21
-2
0
LINE
8
0
10
83
20
-2
11
83
21
12
0
LINE
8
0
10
83
20
12
11
69
21
12
0
LINE
8
0
10
69
20
12
11
69
21
-2
0
LINE
8
0
10
69
20
17
11
83
21
17
0
LINE
8
0
10
83
20
17
11
83
21
31
0
LINE
8
0
10
83
20
31
11
69
21
31
0
LINE
8
0
10
69
20
31
11
69
21
17
0
LINE
8
0
10
69
20
36
11
83
21
36
0
LINE
8
0
10
83
20
36
11
83
21
50
0
LINE
8
0
10
83
20
50
11
69
21
50
0
LINE
8
0
10
69
20
50
11
69
21
36
0
LINE
8
0
10
69
20
55
11
83
21
55
0
LINE
8
0
10
83
20
55
11
83
21
69
0
LINE
8
0
10
83
20
69
11
69
21
69
0
LINE
8
0
10
69
20
69
11
69
21
55
0
LINE
8
0
10
88
20
-7
11
102
21
-7
0
LINE
8
0
10
102
20
-7
11
102
21
7
0
LINE
8
0
10
102
20
7
11
88
21
7
0
LINE
8
0
10
88
20
7
11
88
21
-7
0
LINE
8
0
10
88
20
12
11
102
21
12
0
LINE
8
0
10
102
20
12
11
102
21
26
0
LINE
8
0
10
102
20
26
11
88
21
26
0
LINE
8
0
10
88
20
26
11
88
21
12
0
LINE
8
0
10
88
20
31
11
102
21
31
0
LINE
8
0
10
102
20
31
11
102
21
45
0
LINE
8
0
10
102
20
45
11
88
21
45
0
LINE
8
0
10
88
20
45
11
88
21
31
0
LINE
8
0
10
88
20
50
11
102
21
50
0
LINE
8
0
10
102
20
50
11
102
21
64
0
LINE
8
0
10
102
20
64
11
88
21
64
0
LINE
8
0
10
88
20
64
11
88
21
50
0
LINE
8
0
10
56
20
-27
11
70
21
-27
0
LINE
8
0
10
70
20
-27
11
70
21
-13
0
LINE
8
0
10
70
20
-13
11
56
21
-13
0
LINE
8
0
10
56
20
-13
11
56
21
-27
0
LINE
8
0
10
75
20
-27
11
89
21
-27
0
LINE
8
0
10
89
20
-27
11
89
21
-13
0
LINE
8
0
10
89
20
-13
11
75
21
-13
0
LINE
8
0
10
75
20
-13
11
75
21
-27
0
LINE
8
0
10
95.3829442
20
-29.4640947
11
107.7442105
21
-36.0366966
0
LINE
8
0
10
107.7442105
20
-36.0366966
11
114.3168124
21
-23.6754303
0
LINE
8
0
10
114.3168124
20
-23.6754303
11
101.9555461
21
-17.1028284
0
LINE
8
0
10
101.9555461
20
-17.1028284
11
95.3829442
21
-29.4640947
0
LINE
8
0
10
112.9516413
20
-40.3999504
11
120.7803419
21
-52.0064764
0
LINE
8
0
10
120.7803419
20
-52.0064764
11
132.3868679
21
-44.1777758
0
LINE
8
0
10
132.3868679
20
-44.1777758
11
124.5581673
21
-32.5712498
0
LINE
8
0
10
124.5581673
20
-32.5712498
11
112.9516413
21
-40.3999504
0
LINE
8
0
10
109.7816254
20
-8.3753336
11
123.7816254
21
-8.3753336
0
LINE
8
0
10
123.7816254
20
-8.3753336
11
123.7816254
21
5.6246664
0
LINE
8
0
10
123.7816254
20
5.6246664
11
109.7816254
21
5.6246664
0
LINE
8
0
10
109.7816254
20
5.6246664
11
109.7816254
21
-8.3753336
0
ENDSEC
0
EOF