%TF.GenerationSoftware,KiCad,Pcbnew,9.0.1*%
%TF.CreationDate,2025-07-07T00:05:24+02:00*%
%TF.ProjectId,LQS-keyboard,4c51532d-6b65-4796-926f-6172642e6b69,rev?*%
%TF.SameCoordinates,Original*%
%TF.FileFunction,Profile,NP*%
%FSLAX46Y46*%
G04 Gerber Fmt 4.6, Leading zero omitted, Abs format (unit mm)*
G04 Created by KiCad (PCBNEW 9.0.1) date 2025-07-07 00:05:24*
%MOMM*%
%LPD*%
G01*
G04 APERTURE LIST*
%TA.AperFunction,Profile*%
%ADD10C,0.150000*%
%TD*%
G04 APERTURE END LIST*
D10*
X150585168Y-132479109D02*
X137066781Y-132840409D01*
X197685411Y-150100673D02*
X187293643Y-157110010D01*
X109000001Y-112842194D02*
G75*
G02*
X114000006Y-117842194I-1J-5000006D01*
G01*
X56000001Y-112842194D02*
X109000001Y-112842194D01*
X51000000Y-28500001D02*
G75*
G02*
X55957629Y-23500180I5000000J1D01*
G01*
X119000001Y-132842194D02*
G75*
G02*
X114000006Y-127842194I-1J4999994D01*
G01*
X187942475Y-34163411D02*
G75*
G02*
X192000018Y-39073782I-942475J-4910389D01*
G01*
X136933196Y-132842194D02*
X119000001Y-132842194D01*
X192000001Y-91927668D02*
G75*
G02*
X191999917Y-91956708I-5019801J-32D01*
G01*
X106996689Y-23500000D02*
X126500000Y-23500000D01*
X56000001Y-112842194D02*
G75*
G02*
X51000006Y-107842194I-1J4999994D01*
G01*
X51000001Y-107842194D02*
X51000001Y-28500001D01*
X192628825Y-133662518D02*
G75*
G02*
X191774099Y-130837514I4145375J2796018D01*
G01*
X114000001Y-127842194D02*
X114000001Y-117842194D01*
X199034633Y-143159521D02*
G75*
G02*
X197685414Y-150100677I-4145133J-2795979D01*
G01*
X150585168Y-132479109D02*
G75*
G02*
X153066125Y-133062560I133532J-4998691D01*
G01*
X137066781Y-132840409D02*
G75*
G02*
X136933196Y-132842195I-133581J4994709D01*
G01*
X171870599Y-143061110D02*
G75*
G02*
X173807298Y-144897703I-2347699J-4415090D01*
G01*
X191999917Y-91956708D02*
X191774097Y-130837514D01*
X187293643Y-157110010D02*
G75*
G02*
X180213639Y-155542956I-2795943J4145210D01*
G01*
X180213619Y-155542968D02*
X173807300Y-144897702D01*
X171870599Y-143061110D02*
X153066111Y-133062586D01*
X127442474Y-23589633D02*
X172000000Y-34226414D01*
X192628825Y-133662518D02*
X199034634Y-143159521D01*
X126500000Y-23500000D02*
G75*
G02*
X127442474Y-23589631I0J-4999900D01*
G01*
X172000000Y-34226414D02*
X187942475Y-34163411D01*
X55957556Y-23500180D02*
X107000000Y-23500000D01*
X192000001Y-39073782D02*
X192000001Y-91927669D01*
M02*
