%TF.GenerationSoftware,KiCad,Pcbnew,9.0.1*%
%TF.CreationDate,2025-07-07T00:05:24+02:00*%
%TF.ProjectId,LQS-keyboard,4c51532d-6b65-4796-926f-6172642e6b69,rev?*%
%TF.SameCoordinates,Original*%
%TF.FileFunction,Copper,L2,Bot*%
%TF.FilePolarity,Positive*%
%FSLAX46Y46*%
G04 Gerber Fmt 4.6, Leading zero omitted, Abs format (unit mm)*
G04 Created by KiCad (PCBNEW 9.0.1) date 2025-07-07 00:05:24*
%MOMM*%
%LPD*%
G01*
G04 APERTURE LIST*
G04 Aperture macros list*
%AMHorizOval*
0 Thick line with rounded ends*
0 $1 width*
0 $2 $3 position (X,Y) of the first rounded end (center of the circle)*
0 $4 $5 position (X,Y) of the second rounded end (center of the circle)*
0 Add line between two ends*
20,1,$1,$2,$3,$4,$5,0*
0 Add two circle primitives to create the rounded ends*
1,1,$1,$2,$3*
1,1,$1,$4,$5*%
%AMRotRect*
0 Rectangle, with rotation*
0 The origin of the aperture is its center*
0 $1 length*
0 $2 width*
0 $3 Rotation angle, in degrees counterclockwise*
0 Add horizontal line*
21,1,$1,$2,0,0,$3*%
G04 Aperture macros list end*
%TA.AperFunction,ComponentPad*%
%ADD10RotRect,1.600000X1.600000X332.000000*%
%TD*%
%TA.AperFunction,ComponentPad*%
%ADD11HorizOval,1.600000X0.000000X0.000000X0.000000X0.000000X0*%
%TD*%
%TA.AperFunction,ComponentPad*%
%ADD12C,1.650000*%
%TD*%
%TA.AperFunction,ComponentPad*%
%ADD13C,2.000000*%
%TD*%
%TA.AperFunction,ComponentPad*%
%ADD14R,1.600000X1.600000*%
%TD*%
%TA.AperFunction,ComponentPad*%
%ADD15O,1.600000X1.600000*%
%TD*%
%TA.AperFunction,ComponentPad*%
%ADD16C,1.400000*%
%TD*%
%TA.AperFunction,ComponentPad*%
%ADD17O,1.400000X1.400000*%
%TD*%
%TA.AperFunction,ComponentPad*%
%ADD18C,1.600000*%
%TD*%
%TA.AperFunction,ComponentPad*%
%ADD19R,1.300000X1.300000*%
%TD*%
%TA.AperFunction,ComponentPad*%
%ADD20C,1.800000*%
%TD*%
%TA.AperFunction,ComponentPad*%
%ADD21RotRect,1.600000X1.600000X34.000000*%
%TD*%
%TA.AperFunction,ComponentPad*%
%ADD22HorizOval,1.600000X0.000000X0.000000X0.000000X0.000000X0*%
%TD*%
%TA.AperFunction,Conductor*%
%ADD23C,0.200000*%
%TD*%
G04 APERTURE END LIST*
D10*
%TO.P,D28,1,K*%
%TO.N,ROWT*%
X169000000Y-117500000D03*
D11*
%TO.P,D28,2,A*%
%TO.N,Net-(D28-A)*%
X175728061Y-121077373D03*
%TD*%
D12*
%TO.P,SW19,*%
%TO.N,*%
X58000000Y-96350000D03*
X68000000Y-96350000D03*
D13*
%TO.P,SW19,1,1*%
%TO.N,Net-(D19-A)*%
X63000000Y-107400000D03*
%TO.P,SW19,2,2*%
%TO.N,COL1*%
X58000000Y-105300000D03*
X68000000Y-105300000D03*
%TD*%
D14*
%TO.P,D18,1,K*%
%TO.N,ROW3*%
X167500000Y-92000000D03*
D15*
%TO.P,D18,2,A*%
%TO.N,Net-(D18-A)*%
X167500000Y-84380000D03*
%TD*%
D12*
%TO.P,SW22,*%
%TO.N,*%
X115000001Y-86292194D03*
X125000001Y-86292194D03*
D13*
%TO.P,SW22,1,1*%
%TO.N,Net-(D22-A)*%
X120000001Y-97342194D03*
%TO.P,SW22,2,2*%
%TO.N,COL4*%
X115000001Y-95242194D03*
X125000001Y-95242194D03*
%TD*%
D14*
%TO.P,D8,1,K*%
%TO.N,ROW2*%
X91500000Y-73000000D03*
D15*
%TO.P,D8,2,A*%
%TO.N,Net-(D8-A)*%
X91500000Y-65380000D03*
%TD*%
D14*
%TO.P,D23,1,K*%
%TO.N,ROW4*%
X148500000Y-107500000D03*
D15*
%TO.P,D23,2,A*%
%TO.N,Net-(D23-A)*%
X148500000Y-99880000D03*
%TD*%
D12*
%TO.P,SW6,*%
%TO.N,*%
X153000000Y-39350000D03*
X163000000Y-39350000D03*
D13*
%TO.P,SW6,1,1*%
%TO.N,Net-(D6-A)*%
X158000000Y-50400000D03*
%TO.P,SW6,2,2*%
%TO.N,COL6*%
X153000000Y-48300000D03*
X163000000Y-48300000D03*
%TD*%
D14*
%TO.P,D1,1,K*%
%TO.N,ROW1*%
X72500000Y-53809999D03*
D15*
%TO.P,D1,2,A*%
%TO.N,Net-(D1-A)*%
X72500000Y-46189999D03*
%TD*%
D16*
%TO.P,R1,1*%
%TO.N,Net-(D30-RK)*%
X75630000Y-32250000D03*
D17*
%TO.P,R1,2*%
%TO.N,LEDR*%
X83250000Y-32250000D03*
%TD*%
D12*
%TO.P,SW9,*%
%TO.N,*%
X96000001Y-53292194D03*
X106000001Y-53292194D03*
D13*
%TO.P,SW9,1,1*%
%TO.N,Net-(D9-A)*%
X101000001Y-64342194D03*
%TO.P,SW9,2,2*%
%TO.N,COL3*%
X96000001Y-62242194D03*
X106000001Y-62242194D03*
%TD*%
D12*
%TO.P,SW16,*%
%TO.N,*%
X115000001Y-67292194D03*
X125000001Y-67292194D03*
D13*
%TO.P,SW16,1,1*%
%TO.N,Net-(D16-A)*%
X120000001Y-78342194D03*
%TO.P,SW16,2,2*%
%TO.N,COL4*%
X115000001Y-76242194D03*
X125000001Y-76242194D03*
%TD*%
D12*
%TO.P,SW14,*%
%TO.N,*%
X77000000Y-77050000D03*
X87000000Y-77050000D03*
D13*
%TO.P,SW14,1,1*%
%TO.N,Net-(D14-A)*%
X82000000Y-88100000D03*
%TO.P,SW14,2,2*%
%TO.N,COL2*%
X77000000Y-86000000D03*
X87000000Y-86000000D03*
%TD*%
D12*
%TO.P,SW25,*%
%TO.N,*%
X174781626Y-97667528D03*
X184781626Y-97667528D03*
D13*
%TO.P,SW25,1,1*%
%TO.N,Net-(D25-A)*%
X179781626Y-108717528D03*
%TO.P,SW25,2,2*%
%TO.N,COL6*%
X174781626Y-106617528D03*
X184781626Y-106617528D03*
%TD*%
D14*
%TO.P,D3,1,K*%
%TO.N,ROW1*%
X110500000Y-48500000D03*
D15*
%TO.P,D3,2,A*%
%TO.N,Net-(D3-A)*%
X110500000Y-40880000D03*
%TD*%
D14*
%TO.P,D2,1,K*%
%TO.N,ROW1*%
X91500000Y-53810000D03*
D15*
%TO.P,D2,2,A*%
%TO.N,Net-(D2-A)*%
X91500000Y-46190000D03*
%TD*%
D12*
%TO.P,SW26,*%
%TO.N,*%
X121000001Y-116292194D03*
X131000001Y-116292194D03*
D13*
%TO.P,SW26,1,1*%
%TO.N,Net-(D26-A)*%
X126000001Y-127342194D03*
%TO.P,SW26,2,2*%
%TO.N,COL2*%
X121000001Y-125242194D03*
X131000001Y-125242194D03*
%TD*%
D14*
%TO.P,D10,1,K*%
%TO.N,ROW2*%
X129500000Y-63000000D03*
D15*
%TO.P,D10,2,A*%
%TO.N,Net-(D10-A)*%
X129500000Y-55380000D03*
%TD*%
D12*
%TO.P,SW8,*%
%TO.N,*%
X77000001Y-58292194D03*
X87000001Y-58292194D03*
D13*
%TO.P,SW8,1,1*%
%TO.N,Net-(D8-A)*%
X82000001Y-69342194D03*
%TO.P,SW8,2,2*%
%TO.N,COL2*%
X77000001Y-67242194D03*
X87000001Y-67242194D03*
%TD*%
D16*
%TO.P,R2,1*%
%TO.N,Net-(D30-GK)*%
X75380000Y-29500000D03*
D17*
%TO.P,R2,2*%
%TO.N,LEDG*%
X83000000Y-29500000D03*
%TD*%
D12*
%TO.P,SW20,*%
%TO.N,*%
X77000001Y-96292194D03*
X87000001Y-96292194D03*
D13*
%TO.P,SW20,1,1*%
%TO.N,Net-(D20-A)*%
X82000001Y-107342194D03*
%TO.P,SW20,2,2*%
%TO.N,COL2*%
X77000001Y-105242194D03*
X87000001Y-105242194D03*
%TD*%
D14*
%TO.P,D13,1,K*%
%TO.N,ROW3*%
X72500000Y-92000000D03*
D15*
%TO.P,D13,2,A*%
%TO.N,Net-(D13-A)*%
X72500000Y-84380000D03*
%TD*%
D12*
%TO.P,SW13,*%
%TO.N,*%
X58000001Y-77292194D03*
X68000001Y-77292194D03*
D13*
%TO.P,SW13,1,1*%
%TO.N,Net-(D13-A)*%
X63000001Y-88342194D03*
%TO.P,SW13,2,2*%
%TO.N,COL1*%
X58000001Y-86242194D03*
X68000001Y-86242194D03*
%TD*%
D14*
%TO.P,D11,1,K*%
%TO.N,ROW2*%
X148500000Y-68000000D03*
D15*
%TO.P,D11,2,A*%
%TO.N,Net-(D11-A)*%
X148500000Y-60380000D03*
%TD*%
D14*
%TO.P,D5,1,K*%
%TO.N,ROW1*%
X148500000Y-49000000D03*
D15*
%TO.P,D5,2,A*%
%TO.N,Net-(D5-A)*%
X148500000Y-41380000D03*
%TD*%
D18*
%TO.P,U2,1,GP0(TX)*%
%TO.N,unconnected-(U2-GP0(TX)-Pad1)*%
X172750000Y-38460000D03*
%TO.P,U2,2,GP1(RX)*%
%TO.N,unconnected-(U2-GP1(RX)-Pad2)*%
X172750000Y-41000000D03*
%TO.P,U2,3,GND*%
%TO.N,unconnected-(U2-GND-Pad3)*%
X172750000Y-43540000D03*
%TO.P,U2,4,GND*%
%TO.N,Net-(JP1-A)*%
X172750000Y-46080000D03*
%TO.P,U2,5,SDA(GP2)*%
%TO.N,unconnected-(U2-SDA(GP2)-Pad5)*%
X172750000Y-48620000D03*
%TO.P,U2,6,SCL(GP3)*%
%TO.N,unconnected-(U2-SCL(GP3)-Pad6)*%
X172750000Y-51160000D03*
%TO.P,U2,7,GP4*%
%TO.N,COL1*%
X172750000Y-53700000D03*
%TO.P,U2,8,GP5*%
%TO.N,COL2*%
X172750000Y-56240000D03*
%TO.P,U2,9,GP6*%
%TO.N,COL3*%
X172750000Y-58780000D03*
%TO.P,U2,10,GP7*%
%TO.N,COL4*%
X172750000Y-61320000D03*
%TO.P,U2,11,GP8*%
%TO.N,COL5*%
X172750000Y-63860000D03*
%TO.P,U2,12,GP9*%
%TO.N,COL6*%
X172750000Y-66400000D03*
%TO.P,U2,13,GP21*%
%TO.N,ROW1*%
X187990000Y-66400000D03*
%TO.P,U2,14,GP23*%
%TO.N,ROW2*%
X187990000Y-63860000D03*
%TO.P,U2,15,GP20*%
%TO.N,ROW3*%
X187990000Y-61320000D03*
%TO.P,U2,16,GP22*%
%TO.N,ROW4*%
X187990000Y-58780000D03*
%TO.P,U2,17,GP26(A0)*%
%TO.N,ROWT*%
X187990000Y-56240000D03*
%TO.P,U2,18,GP27(A1)*%
%TO.N,LEDR*%
X187990000Y-53700000D03*
%TO.P,U2,19,GP28(A2)*%
%TO.N,LEDG*%
X187990000Y-51160000D03*
%TO.P,U2,20,GP29(A3)*%
%TO.N,LEDB*%
X187990000Y-48620000D03*
%TO.P,U2,21,3v3*%
%TO.N,Net-(JP2-A)*%
X187990000Y-46080000D03*
%TO.P,U2,22,RST*%
%TO.N,unconnected-(U2-RST-Pad22)*%
X187990000Y-43540000D03*
%TO.P,U2,23,GND*%
%TO.N,unconnected-(U2-GND-Pad23)*%
X187990000Y-41000000D03*
D14*
%TO.P,U2,24,5V*%
%TO.N,unconnected-(U2-5V-Pad24)*%
X187990000Y-38460000D03*
D18*
%TO.P,U2,33,GP10(B-)*%
%TO.N,unconnected-(U2-GP10(B-)-Pad33)*%
X172750000Y-35920000D03*
%TO.P,U2,34,GP11(B+)*%
%TO.N,unconnected-(U2-GP11(B+)-Pad34)*%
X187990000Y-35920000D03*
%TD*%
D14*
%TO.P,D25,1,K*%
%TO.N,ROWT*%
X172940000Y-112500000D03*
D15*
%TO.P,D25,2,A*%
%TO.N,Net-(D25-A)*%
X180560000Y-112500000D03*
%TD*%
D12*
%TO.P,SW28,*%
%TO.N,*%
X165852920Y-121117419D03*
X174682396Y-125812135D03*
D13*
%TO.P,SW28,1,1*%
%TO.N,COL4*%
X165079997Y-133221348D03*
%TO.P,SW28,2,2*%
%TO.N,Net-(D28-A)*%
X161651149Y-129019800D03*
X170480625Y-133714516D03*
%TD*%
D12*
%TO.P,SW4,*%
%TO.N,*%
X115000000Y-29350000D03*
X125000000Y-29350000D03*
D13*
%TO.P,SW4,1,1*%
%TO.N,Net-(D4-A)*%
X120000000Y-40400000D03*
%TO.P,SW4,2,2*%
%TO.N,COL4*%
X115000000Y-38300000D03*
X125000000Y-38300000D03*
%TD*%
D12*
%TO.P,SW1,*%
%TO.N,*%
X58000000Y-39500000D03*
X68000000Y-39500000D03*
D13*
%TO.P,SW1,1,1*%
%TO.N,Net-(D1-A)*%
X63000000Y-50550000D03*
%TO.P,SW1,2,2*%
%TO.N,COL1*%
X58000000Y-48450000D03*
X68000000Y-48450000D03*
%TD*%
D12*
%TO.P,SW17,*%
%TO.N,*%
X134000001Y-72292194D03*
X144000001Y-72292194D03*
D13*
%TO.P,SW17,1,1*%
%TO.N,Net-(D17-A)*%
X139000001Y-83342194D03*
%TO.P,SW17,2,2*%
%TO.N,COL5*%
X134000001Y-81242194D03*
X144000001Y-81242194D03*
%TD*%
D14*
%TO.P,D22,1,K*%
%TO.N,ROW4*%
X129500000Y-103000000D03*
D15*
%TO.P,D22,2,A*%
%TO.N,Net-(D22-A)*%
X129500000Y-95380000D03*
%TD*%
D12*
%TO.P,SW3,*%
%TO.N,*%
X96000001Y-34292194D03*
X106000001Y-34292194D03*
D13*
%TO.P,SW3,1,1*%
%TO.N,Net-(D3-A)*%
X101000001Y-45342194D03*
%TO.P,SW3,2,2*%
%TO.N,COL3*%
X96000001Y-43242194D03*
X106000001Y-43242194D03*
%TD*%
D12*
%TO.P,SW27,*%
%TO.N,*%
X140000001Y-116292194D03*
X150000001Y-116292194D03*
D13*
%TO.P,SW27,1,1*%
%TO.N,COL3*%
X145000001Y-127342194D03*
%TO.P,SW27,2,2*%
%TO.N,Net-(D27-A)*%
X140000001Y-125242194D03*
X150000001Y-125242194D03*
%TD*%
D14*
%TO.P,D17,1,K*%
%TO.N,ROW3*%
X148500000Y-87000000D03*
D15*
%TO.P,D17,2,A*%
%TO.N,Net-(D17-A)*%
X148500000Y-79380000D03*
%TD*%
D19*
%TO.P,D30,1,RK*%
%TO.N,Net-(D30-RK)*%
X62750000Y-33613000D03*
D20*
%TO.P,D30,2,GK*%
%TO.N,Net-(D30-GK)*%
X62750000Y-31454000D03*
%TO.P,D30,3,BK*%
%TO.N,Net-(D30-BK)*%
X62750000Y-29295000D03*
%TO.P,D30,4,A*%
%TO.N,3v3*%
X62750000Y-27136000D03*
%TD*%
D14*
%TO.P,D6,1,K*%
%TO.N,ROW1*%
X168000000Y-54000000D03*
D15*
%TO.P,D6,2,A*%
%TO.N,Net-(D6-A)*%
X168000000Y-46380000D03*
%TD*%
D14*
%TO.P,D19,1,K*%
%TO.N,ROW4*%
X72500000Y-108810000D03*
D15*
%TO.P,D19,2,A*%
%TO.N,Net-(D19-A)*%
X72500000Y-101190000D03*
%TD*%
D14*
%TO.P,D16,1,K*%
%TO.N,ROW3*%
X129500000Y-82000000D03*
D15*
%TO.P,D16,2,A*%
%TO.N,Net-(D16-A)*%
X129500000Y-74380000D03*
%TD*%
D14*
%TO.P,D27,1,K*%
%TO.N,ROWT*%
X148810000Y-111500000D03*
D15*
%TO.P,D27,2,A*%
%TO.N,Net-(D27-A)*%
X141190000Y-111500000D03*
%TD*%
D14*
%TO.P,D4,1,K*%
%TO.N,ROW1*%
X129500000Y-44500000D03*
D15*
%TO.P,D4,2,A*%
%TO.N,Net-(D4-A)*%
X129500000Y-36880000D03*
%TD*%
D12*
%TO.P,SW2,*%
%TO.N,*%
X77000000Y-39350000D03*
X87000000Y-39350000D03*
D13*
%TO.P,SW2,1,1*%
%TO.N,Net-(D2-A)*%
X82000000Y-50400000D03*
%TO.P,SW2,2,2*%
%TO.N,COL2*%
X77000000Y-48300000D03*
X87000000Y-48300000D03*
%TD*%
D21*
%TO.P,D29,1,K*%
%TO.N,ROWT*%
X176500000Y-137500000D03*
D22*
%TO.P,D29,2,A*%
%TO.N,Net-(D29-A)*%
X182817266Y-133238950D03*
%TD*%
D12*
%TO.P,SW12,*%
%TO.N,*%
X153000001Y-58292194D03*
X163000001Y-58292194D03*
D13*
%TO.P,SW12,1,1*%
%TO.N,Net-(D12-A)*%
X158000001Y-69342194D03*
%TO.P,SW12,2,2*%
%TO.N,COL6*%
X153000001Y-67242194D03*
X163000001Y-67242194D03*
%TD*%
D14*
%TO.P,D9,1,K*%
%TO.N,ROW2*%
X110500000Y-68000000D03*
D15*
%TO.P,D9,2,A*%
%TO.N,Net-(D9-A)*%
X110500000Y-60380000D03*
%TD*%
D12*
%TO.P,SW5,*%
%TO.N,*%
X134000000Y-34350000D03*
X144000000Y-34350000D03*
D13*
%TO.P,SW5,1,1*%
%TO.N,Net-(D5-A)*%
X139000000Y-45400000D03*
%TO.P,SW5,2,2*%
%TO.N,COL5*%
X134000000Y-43300000D03*
X144000000Y-43300000D03*
%TD*%
D14*
%TO.P,D12,1,K*%
%TO.N,ROW2*%
X167500000Y-72500000D03*
D15*
%TO.P,D12,2,A*%
%TO.N,Net-(D12-A)*%
X167500000Y-64880000D03*
%TD*%
D14*
%TO.P,D14,1,K*%
%TO.N,ROW3*%
X91500000Y-92000000D03*
D15*
%TO.P,D14,2,A*%
%TO.N,Net-(D14-A)*%
X91500000Y-84380000D03*
%TD*%
D14*
%TO.P,D7,1,K*%
%TO.N,ROW2*%
X72500000Y-73000000D03*
D15*
%TO.P,D7,2,A*%
%TO.N,Net-(D7-A)*%
X72500000Y-65380000D03*
%TD*%
D12*
%TO.P,SW18,*%
%TO.N,*%
X153000001Y-77292194D03*
X163000001Y-77292194D03*
D13*
%TO.P,SW18,1,1*%
%TO.N,Net-(D18-A)*%
X158000001Y-88342194D03*
%TO.P,SW18,2,2*%
%TO.N,COL6*%
X153000001Y-86242194D03*
X163000001Y-86242194D03*
%TD*%
D12*
%TO.P,SW11,*%
%TO.N,*%
X134000000Y-53350000D03*
X144000000Y-53350000D03*
D13*
%TO.P,SW11,1,1*%
%TO.N,Net-(D11-A)*%
X139000000Y-64400000D03*
%TO.P,SW11,2,2*%
%TO.N,COL5*%
X134000000Y-62300000D03*
X144000000Y-62300000D03*
%TD*%
D12*
%TO.P,SW10,*%
%TO.N,*%
X115000000Y-48350000D03*
X125000000Y-48350000D03*
D13*
%TO.P,SW10,1,1*%
%TO.N,Net-(D10-A)*%
X120000000Y-59400000D03*
%TO.P,SW10,2,2*%
%TO.N,COL4*%
X115000000Y-57300000D03*
X125000000Y-57300000D03*
%TD*%
D12*
%TO.P,SW23,*%
%TO.N,*%
X134000001Y-91292194D03*
X144000001Y-91292194D03*
D13*
%TO.P,SW23,1,1*%
%TO.N,Net-(D23-A)*%
X139000001Y-102342194D03*
%TO.P,SW23,2,2*%
%TO.N,COL5*%
X134000001Y-100242194D03*
X144000001Y-100242194D03*
%TD*%
D14*
%TO.P,D21,1,K*%
%TO.N,ROW4*%
X110500000Y-103500000D03*
D15*
%TO.P,D21,2,A*%
%TO.N,Net-(D21-A)*%
X110500000Y-95880000D03*
%TD*%
D12*
%TO.P,SW15,*%
%TO.N,*%
X96000001Y-72292194D03*
X106000001Y-72292194D03*
D13*
%TO.P,SW15,1,1*%
%TO.N,Net-(D15-A)*%
X101000001Y-83342194D03*
%TO.P,SW15,2,2*%
%TO.N,COL3*%
X96000001Y-81242194D03*
X106000001Y-81242194D03*
%TD*%
D12*
%TO.P,SW21,*%
%TO.N,*%
X96000001Y-91292194D03*
X106000001Y-91292194D03*
D13*
%TO.P,SW21,1,1*%
%TO.N,Net-(D21-A)*%
X101000001Y-102342194D03*
%TO.P,SW21,2,2*%
%TO.N,COL3*%
X96000001Y-100242194D03*
X106000001Y-100242194D03*
%TD*%
D12*
%TO.P,SW29,*%
%TO.N,*%
X187142835Y-136706026D03*
X192734764Y-144996401D03*
D13*
%TO.P,SW29,1,1*%
%TO.N,COL5*%
X180777934Y-147030295D03*
%TO.P,SW29,2,2*%
%TO.N,Net-(D29-A)*%
X179722949Y-141710802D03*
X185314878Y-150001178D03*
%TD*%
D12*
%TO.P,SW7,*%
%TO.N,*%
X58000000Y-58350000D03*
X68000000Y-58350000D03*
D13*
%TO.P,SW7,1,1*%
%TO.N,Net-(D7-A)*%
X63000000Y-69400000D03*
%TO.P,SW7,2,2*%
%TO.N,COL1*%
X58000000Y-67300000D03*
X68000000Y-67300000D03*
%TD*%
D14*
%TO.P,D26,1,K*%
%TO.N,ROWT*%
X130000000Y-111500000D03*
D15*
%TO.P,D26,2,A*%
%TO.N,Net-(D26-A)*%
X122380000Y-111500000D03*
%TD*%
D14*
%TO.P,D24,1,K*%
%TO.N,ROW4*%
X167500000Y-110500000D03*
D15*
%TO.P,D24,2,A*%
%TO.N,Net-(D24-A)*%
X167500000Y-102880000D03*
%TD*%
D16*
%TO.P,R3,1*%
%TO.N,Net-(D30-BK)*%
X75380000Y-27000000D03*
D17*
%TO.P,R3,2*%
%TO.N,LEDB*%
X83000000Y-27000000D03*
%TD*%
D14*
%TO.P,D20,1,K*%
%TO.N,ROW4*%
X91500000Y-108810000D03*
D15*
%TO.P,D20,2,A*%
%TO.N,Net-(D20-A)*%
X91500000Y-101190000D03*
%TD*%
D12*
%TO.P,SW24,*%
%TO.N,*%
X153000001Y-96292194D03*
X163000001Y-96292194D03*
D13*
%TO.P,SW24,1,1*%
%TO.N,Net-(D24-A)*%
X158000001Y-107342194D03*
%TO.P,SW24,2,2*%
%TO.N,COL6*%
X153000001Y-105242194D03*
X163000001Y-105242194D03*
%TD*%
D14*
%TO.P,D15,1,K*%
%TO.N,ROW3*%
X110500000Y-87000000D03*
D15*
%TO.P,D15,2,A*%
%TO.N,Net-(D15-A)*%
X110500000Y-79380000D03*
%TD*%
D23*
%TO.N,COL1*%
X58000000Y-48450000D02*
X68000000Y-48450000D01*
X58000000Y-48450000D02*
X59250000Y-49700000D01*
X59250000Y-47200000D02*
X59250000Y-43000000D01*
X58000000Y-67300000D02*
X68000000Y-67300000D01*
X59250000Y-104050000D02*
X58000000Y-105300000D01*
X171350000Y-52250000D02*
X172760000Y-53660000D01*
X59250000Y-43000000D02*
X74026000Y-28224000D01*
X129526000Y-30750000D02*
X145067100Y-30750000D01*
X59250000Y-49700000D02*
X59250000Y-104050000D01*
X145067100Y-30750000D02*
X149416100Y-35099000D01*
X58000001Y-86242194D02*
X67999999Y-86242194D01*
X127000000Y-28224000D02*
X129526000Y-30750000D01*
X149416100Y-35099000D02*
X161475605Y-35099000D01*
X74026000Y-28224000D02*
X127000000Y-28224000D01*
X161475605Y-35099000D02*
X171350000Y-44973395D01*
X58000000Y-105300000D02*
X68000000Y-105300000D01*
X171350000Y-44973395D02*
X171350000Y-52250000D01*
X58000000Y-48450000D02*
X59250000Y-47200000D01*
%TO.N,COL2*%
X77000000Y-48300000D02*
X87000000Y-48300000D01*
X89401000Y-30849000D02*
X124750000Y-30849000D01*
X110876013Y-105242194D02*
X118750000Y-113116181D01*
X126401000Y-32500000D02*
X146250000Y-32500000D01*
X78500000Y-41750000D02*
X89401000Y-30849000D01*
X149250000Y-35500000D02*
X161309505Y-35500000D01*
X124750000Y-30849000D02*
X126401000Y-32500000D01*
X146250000Y-32500000D02*
X149250000Y-35500000D01*
X118750000Y-113116181D02*
X118750000Y-115750000D01*
X170250000Y-44440495D02*
X170250000Y-55750000D01*
X77000001Y-67242194D02*
X86999999Y-67242194D01*
X77000000Y-48300000D02*
X78500000Y-46800000D01*
X170250000Y-55750000D02*
X170700000Y-56200000D01*
X77000000Y-86000000D02*
X87000000Y-86000000D01*
X170700000Y-56200000D02*
X172760000Y-56200000D01*
X121000001Y-125242194D02*
X131000000Y-125242194D01*
X118750000Y-115750000D02*
X122000001Y-119000001D01*
X77000001Y-105242194D02*
X110876013Y-105242194D01*
X122000001Y-124242194D02*
X121000001Y-125242194D01*
X161309505Y-35500000D02*
X170250000Y-44440495D01*
X78500000Y-46800000D02*
X78500000Y-41750000D01*
X78250000Y-49550000D02*
X78250000Y-103992195D01*
X78250000Y-103992195D02*
X77000001Y-105242194D01*
X122000001Y-119000001D02*
X122000001Y-124242194D01*
X77000000Y-48300000D02*
X78250000Y-49550000D01*
%TO.N,COL3*%
X96000001Y-43242194D02*
X106000001Y-43242194D01*
X128851001Y-120261271D02*
X113190730Y-104601000D01*
X170490000Y-58740000D02*
X172760000Y-58740000D01*
X145500000Y-33000000D02*
X148500000Y-36000000D01*
X96000001Y-62242194D02*
X106000001Y-62242194D01*
X135700258Y-127342194D02*
X128851001Y-120492937D01*
X169750000Y-58000000D02*
X170490000Y-58740000D01*
X97250000Y-44492193D02*
X97250000Y-98992195D01*
X96000001Y-43242194D02*
X97250000Y-44492193D01*
X97500000Y-41742195D02*
X97500000Y-37750000D01*
X128851001Y-120492937D02*
X128851001Y-120261271D01*
X97250000Y-98992195D02*
X96000001Y-100242194D01*
X123750000Y-31250000D02*
X125500000Y-33000000D01*
X97500000Y-37750000D02*
X104000000Y-31250000D01*
X125500000Y-33000000D02*
X145500000Y-33000000D01*
X145000001Y-127342194D02*
X135700258Y-127342194D01*
X96000001Y-100242194D02*
X106000001Y-100242194D01*
X113190730Y-104601000D02*
X100358807Y-104601000D01*
X96000001Y-81242194D02*
X106000001Y-81242194D01*
X104000000Y-31250000D02*
X123750000Y-31250000D01*
X169750000Y-44507595D02*
X169750000Y-58000000D01*
X148500000Y-36000000D02*
X161242405Y-36000000D01*
X96000001Y-43242194D02*
X97500000Y-41742195D01*
X161242405Y-36000000D02*
X169750000Y-44507595D01*
X100358807Y-104601000D02*
X96000001Y-100242194D01*
%TO.N,COL4*%
X116250000Y-93992195D02*
X115000001Y-95242194D01*
X159476000Y-40476000D02*
X155649000Y-36649000D01*
X132233950Y-104101000D02*
X123858807Y-104101000D01*
X147851001Y-120851001D02*
X147851001Y-119718051D01*
X115000000Y-57300000D02*
X125000000Y-57300000D01*
X116250000Y-39550000D02*
X116250000Y-93992195D01*
X123858807Y-104101000D02*
X115000001Y-95242194D01*
X165079997Y-133221348D02*
X160221348Y-133221348D01*
X172760000Y-61280000D02*
X169250000Y-61280000D01*
X115000000Y-38300000D02*
X116250000Y-39550000D01*
X169101000Y-61131000D02*
X169101000Y-45356850D01*
X160221348Y-133221348D02*
X147851001Y-120851001D01*
X115000000Y-38300000D02*
X125000000Y-38300000D01*
X164220150Y-40476000D02*
X159476000Y-40476000D01*
X169101000Y-45356850D02*
X164220150Y-40476000D01*
X169250000Y-61280000D02*
X169101000Y-61131000D01*
X115000001Y-76242194D02*
X124999999Y-76242194D01*
X130709595Y-38300000D02*
X115000000Y-38300000D01*
X115000001Y-95242194D02*
X124999999Y-95242194D01*
X132360595Y-36649000D02*
X130709595Y-38300000D01*
X147851001Y-119718051D02*
X132233950Y-104101000D01*
X155649000Y-36649000D02*
X132360595Y-36649000D01*
%TO.N,COL5*%
X180777934Y-147030295D02*
X174500000Y-140752361D01*
X134000000Y-62300000D02*
X144000000Y-62300000D01*
X174500000Y-130500000D02*
X166565077Y-122565077D01*
X166899000Y-43721950D02*
X166899000Y-61899000D01*
X148952000Y-43300000D02*
X151002000Y-41250000D01*
X135250000Y-44550000D02*
X135250000Y-98992195D01*
X165065077Y-122565077D02*
X159684923Y-117184923D01*
X164427050Y-41250000D02*
X166899000Y-43721950D01*
X159684923Y-117184923D02*
X159684923Y-115815077D01*
X134000001Y-81242194D02*
X143999999Y-81242194D01*
X151002000Y-41250000D02*
X164427050Y-41250000D01*
X174500000Y-140752361D02*
X174500000Y-130500000D01*
X159684923Y-115815077D02*
X144112039Y-100242194D01*
X135250000Y-98992195D02*
X134000001Y-100242194D01*
X168820000Y-63820000D02*
X172760000Y-63820000D01*
X144112039Y-100242194D02*
X134000001Y-100242194D01*
X166899000Y-61899000D02*
X168820000Y-63820000D01*
X144000000Y-43300000D02*
X148952000Y-43300000D01*
X134000000Y-43300000D02*
X144000000Y-43300000D01*
X134000000Y-43300000D02*
X135250000Y-44550000D01*
X166565077Y-122565077D02*
X165065077Y-122565077D01*
%TO.N,COL6*%
X154000000Y-78500000D02*
X154000000Y-95699790D01*
X171877806Y-67242194D02*
X172760000Y-66360000D01*
X174781626Y-106617528D02*
X184781626Y-106617528D01*
X154000000Y-95699790D02*
X154125999Y-95825789D01*
X154500000Y-78000000D02*
X154000000Y-78500000D01*
X162999999Y-67242194D02*
X171877806Y-67242194D01*
X153000000Y-48300000D02*
X163000000Y-48300000D01*
X153000000Y-48300000D02*
X154500000Y-49800000D01*
X173079726Y-104915628D02*
X173079726Y-90662224D01*
X154500000Y-49800000D02*
X154500000Y-78000000D01*
X153000001Y-105242194D02*
X162999999Y-105242194D01*
X153000001Y-67242194D02*
X162999999Y-67242194D01*
X153000001Y-86242194D02*
X162999999Y-86242194D01*
X173079726Y-90662224D02*
X172799501Y-90381999D01*
X154125999Y-95825789D02*
X154125999Y-96758599D01*
X172799501Y-90381999D02*
X157139806Y-90381999D01*
X154000000Y-104242195D02*
X153000001Y-105242194D01*
X154000000Y-96884598D02*
X154000000Y-104242195D01*
X174781626Y-106617528D02*
X173079726Y-104915628D01*
X154125999Y-96758599D02*
X154000000Y-96884598D01*
X157139806Y-90381999D02*
X153000001Y-86242194D01*
%TD*%
M02*
