M48
; DRILL file {KiCad 9.0.1} date 2025-07-07T00:05:19+0200
; FORMAT={-:-/ absolute / metric / decimal}
; #@! TF.CreationDate,2025-07-07T00:05:19+02:00
; #@! TF.GenerationSoftware,Kicad,Pcbnew,9.0.1
; #@! TF.FileFunction,Plated,1,2,PTH
FMAT,2
METRIC
; #@! TA.AperFunction,Plated,PTH,ComponentDrill
T1C0.700
; #@! TA.AperFunction,Plated,PTH,ComponentDrill
T2C0.800
; #@! TA.AperFunction,Plated,PTH,ComponentDrill
T3C0.900
; #@! TA.AperFunction,Plated,PTH,ComponentDrill
T4C1.000
; #@! TA.AperFunction,Plated,PTH,ComponentDrill
T5C1.100
; #@! TA.AperFunction,Plated,PTH,ComponentDrill
T6C1.270
%
G90
G05
T1
X75.38Y-27.0
X75.38Y-29.5
X75.63Y-32.25
X83.0Y-27.0
X83.0Y-29.5
X83.25Y-32.25
T2
X72.5Y-46.19
X72.5Y-53.81
X72.5Y-65.38
X72.5Y-73.0
X72.5Y-84.38
X72.5Y-92.0
X72.5Y-101.19
X72.5Y-108.81
X91.5Y-46.19
X91.5Y-53.81
X91.5Y-65.38
X91.5Y-73.0
X91.5Y-84.38
X91.5Y-92.0
X91.5Y-101.19
X91.5Y-108.81
X110.5Y-40.88
X110.5Y-48.5
X110.5Y-60.38
X110.5Y-68.0
X110.5Y-79.38
X110.5Y-87.0
X110.5Y-95.88
X110.5Y-103.5
X122.38Y-111.5
X129.5Y-36.88
X129.5Y-44.5
X129.5Y-55.38
X129.5Y-63.0
X129.5Y-74.38
X129.5Y-82.0
X129.5Y-95.38
X129.5Y-103.0
X130.0Y-111.5
X141.19Y-111.5
X148.5Y-41.38
X148.5Y-49.0
X148.5Y-60.38
X148.5Y-68.0
X148.5Y-79.38
X148.5Y-87.0
X148.5Y-99.88
X148.5Y-107.5
X148.81Y-111.5
X167.5Y-64.88
X167.5Y-72.5
X167.5Y-84.38
X167.5Y-92.0
X167.5Y-102.88
X167.5Y-110.5
X168.0Y-46.38
X168.0Y-54.0
X169.0Y-117.5
X172.94Y-112.5
X175.728Y-121.077
X176.5Y-137.5
X180.56Y-112.5
X182.817Y-133.239
T3
X62.75Y-27.136
X62.75Y-29.295
X62.75Y-31.454
X62.75Y-33.613
T4
X58.0Y-39.5
X58.0Y-58.35
X58.0Y-96.35
X58.0Y-77.292
X68.0Y-39.5
X68.0Y-58.35
X68.0Y-96.35
X68.0Y-77.292
X77.0Y-39.35
X77.0Y-77.05
X77.0Y-58.292
X77.0Y-96.292
X87.0Y-39.35
X87.0Y-77.05
X87.0Y-58.292
X87.0Y-96.292
X96.0Y-34.292
X96.0Y-53.292
X96.0Y-72.292
X96.0Y-91.292
X106.0Y-34.292
X106.0Y-53.292
X106.0Y-72.292
X106.0Y-91.292
X115.0Y-29.35
X115.0Y-48.35
X115.0Y-67.292
X115.0Y-86.292
X121.0Y-116.292
X125.0Y-29.35
X125.0Y-48.35
X125.0Y-67.292
X125.0Y-86.292
X131.0Y-116.292
X134.0Y-34.35
X134.0Y-53.35
X134.0Y-72.292
X134.0Y-91.292
X140.0Y-116.292
X144.0Y-34.35
X144.0Y-53.35
X144.0Y-72.292
X144.0Y-91.292
X150.0Y-116.292
X153.0Y-39.35
X153.0Y-58.292
X153.0Y-77.292
X153.0Y-96.292
X163.0Y-39.35
X163.0Y-58.292
X163.0Y-77.292
X163.0Y-96.292
X165.853Y-121.117
X174.682Y-125.812
X174.782Y-97.668
X184.782Y-97.668
X187.143Y-136.706
X192.735Y-144.996
T5
X172.75Y-35.92
X172.75Y-38.46
X172.75Y-41.0
X172.75Y-43.54
X172.75Y-46.08
X172.75Y-48.62
X172.75Y-51.16
X172.75Y-53.7
X172.75Y-56.24
X172.75Y-58.78
X172.75Y-61.32
X172.75Y-63.86
X172.75Y-66.4
X187.99Y-35.92
X187.99Y-38.46
X187.99Y-41.0
X187.99Y-43.54
X187.99Y-46.08
X187.99Y-48.62
X187.99Y-51.16
X187.99Y-53.7
X187.99Y-56.24
X187.99Y-58.78
X187.99Y-61.32
X187.99Y-63.86
X187.99Y-66.4
T6
X58.0Y-48.45
X58.0Y-67.3
X58.0Y-105.3
X58.0Y-86.242
X63.0Y-50.55
X63.0Y-69.4
X63.0Y-107.4
X63.0Y-88.342
X68.0Y-48.45
X68.0Y-67.3
X68.0Y-105.3
X68.0Y-86.242
X77.0Y-48.3
X77.0Y-86.0
X77.0Y-67.242
X77.0Y-105.242
X82.0Y-50.4
X82.0Y-88.1
X82.0Y-69.342
X82.0Y-107.342
X87.0Y-48.3
X87.0Y-86.0
X87.0Y-67.242
X87.0Y-105.242
X96.0Y-43.242
X96.0Y-62.242
X96.0Y-81.242
X96.0Y-100.242
X101.0Y-45.342
X101.0Y-64.342
X101.0Y-83.342
X101.0Y-102.342
X106.0Y-43.242
X106.0Y-62.242
X106.0Y-81.242
X106.0Y-100.242
X115.0Y-38.3
X115.0Y-57.3
X115.0Y-76.242
X115.0Y-95.242
X120.0Y-40.4
X120.0Y-59.4
X120.0Y-78.342
X120.0Y-97.342
X121.0Y-125.242
X125.0Y-38.3
X125.0Y-57.3
X125.0Y-76.242
X125.0Y-95.242
X126.0Y-127.342
X131.0Y-125.242
X134.0Y-43.3
X134.0Y-62.3
X134.0Y-81.242
X134.0Y-100.242
X139.0Y-45.4
X139.0Y-64.4
X139.0Y-83.342
X139.0Y-102.342
X140.0Y-125.242
X144.0Y-43.3
X144.0Y-62.3
X144.0Y-81.242
X144.0Y-100.242
X145.0Y-127.342
X150.0Y-125.242
X153.0Y-48.3
X153.0Y-67.242
X153.0Y-86.242
X153.0Y-105.242
X158.0Y-50.4
X158.0Y-69.342
X158.0Y-88.342
X158.0Y-107.342
X161.651Y-129.02
X163.0Y-48.3
X163.0Y-67.242
X163.0Y-86.242
X163.0Y-105.242
X165.08Y-133.221
X170.481Y-133.715
X174.782Y-106.618
X179.723Y-141.711
X179.782Y-108.718
X180.778Y-147.03
X184.782Y-106.618
X185.315Y-150.001
M30
