%TF.GenerationSoftware,KiCad,Pcbnew,9.0.1*%
%TF.CreationDate,2025-07-05T21:54:22+02:00*%
%TF.ProjectId,LQS-keyboard,4c51532d-6b65-4796-926f-6172642e6b69,rev?*%
%TF.SameCoordinates,Original*%
%TF.FileFunction,Copper,L1,Top*%
%TF.FilePolarity,Positive*%
%FSLAX46Y46*%
G04 Gerber Fmt 4.6, Leading zero omitted, Abs format (unit mm)*
G04 Created by KiCad (PCBNEW 9.0.1) date 2025-07-05 21:54:22*
%MOMM*%
%LPD*%
G01*
G04 APERTURE LIST*
G04 Aperture macros list*
%AMHorizOval*
0 Thick line with rounded ends*
0 $1 width*
0 $2 $3 position (X,Y) of the first rounded end (center of the circle)*
0 $4 $5 position (X,Y) of the second rounded end (center of the circle)*
0 Add line between two ends*
20,1,$1,$2,$3,$4,$5,0*
0 Add two circle primitives to create the rounded ends*
1,1,$1,$2,$3*
1,1,$1,$4,$5*%
%AMRotRect*
0 Rectangle, with rotation*
0 The origin of the aperture is its center*
0 $1 length*
0 $2 width*
0 $3 Rotation angle, in degrees counterclockwise*
0 Add horizontal line*
21,1,$1,$2,0,0,$3*%
%AMFreePoly0*
4,1,23,0.500000,-0.750000,0.000000,-0.750000,0.000000,-0.745722,-0.065263,-0.745722,-0.191342,-0.711940,-0.304381,-0.646677,-0.396677,-0.554381,-0.461940,-0.441342,-0.495722,-0.315263,-0.495722,-0.250000,-0.500000,-0.250000,-0.500000,0.250000,-0.495722,0.250000,-0.495722,0.315263,-0.461940,0.441342,-0.396677,0.554381,-0.304381,0.646677,-0.191342,0.711940,-0.065263,0.745722,0.000000,0.745722,
0.000000,0.750000,0.500000,0.750000,0.500000,-0.750000,0.500000,-0.750000,$1*%
%AMFreePoly1*
4,1,23,0.000000,0.745722,0.065263,0.745722,0.191342,0.711940,0.304381,0.646677,0.396677,0.554381,0.461940,0.441342,0.495722,0.315263,0.495722,0.250000,0.500000,0.250000,0.500000,-0.250000,0.495722,-0.250000,0.495722,-0.315263,0.461940,-0.441342,0.396677,-0.554381,0.304381,-0.646677,0.191342,-0.711940,0.065263,-0.745722,0.000000,-0.745722,0.000000,-0.750000,-0.500000,-0.750000,
-0.500000,0.750000,0.000000,0.750000,0.000000,0.745722,0.000000,0.745722,$1*%
G04 Aperture macros list end*
%TA.AperFunction,ComponentPad*%
%ADD10R,1.300000X1.300000*%
%TD*%
%TA.AperFunction,ComponentPad*%
%ADD11C,1.800000*%
%TD*%
%TA.AperFunction,ComponentPad*%
%ADD12RotRect,1.600000X1.600000X332.000000*%
%TD*%
%TA.AperFunction,ComponentPad*%
%ADD13HorizOval,1.600000X0.000000X0.000000X0.000000X0.000000X0*%
%TD*%
%TA.AperFunction,ComponentPad*%
%ADD14C,1.650000*%
%TD*%
%TA.AperFunction,ComponentPad*%
%ADD15C,2.000000*%
%TD*%
%TA.AperFunction,ComponentPad*%
%ADD16R,1.600000X1.600000*%
%TD*%
%TA.AperFunction,ComponentPad*%
%ADD17O,1.600000X1.600000*%
%TD*%
%TA.AperFunction,ComponentPad*%
%ADD18C,1.400000*%
%TD*%
%TA.AperFunction,ComponentPad*%
%ADD19O,1.400000X1.400000*%
%TD*%
%TA.AperFunction,SMDPad,CuDef*%
%ADD20FreePoly0,90.000000*%
%TD*%
%TA.AperFunction,SMDPad,CuDef*%
%ADD21FreePoly1,90.000000*%
%TD*%
%TA.AperFunction,ComponentPad*%
%ADD22C,1.600000*%
%TD*%
%TA.AperFunction,ComponentPad*%
%ADD23RotRect,1.600000X1.600000X34.000000*%
%TD*%
%TA.AperFunction,ComponentPad*%
%ADD24HorizOval,1.600000X0.000000X0.000000X0.000000X0.000000X0*%
%TD*%
%TA.AperFunction,Conductor*%
%ADD25C,0.200000*%
%TD*%
G04 APERTURE END LIST*
D10*
%TO.P,D30,1,RK*%
%TO.N,Net-(D30-RK)*%
X62750000Y-33613000D03*
D11*
%TO.P,D30,2,GK*%
%TO.N,Net-(D30-GK)*%
X62750000Y-31454000D03*
%TO.P,D30,3,BK*%
%TO.N,Net-(D30-BK)*%
X62750000Y-29295000D03*
%TO.P,D30,4,A*%
%TO.N,3v3*%
X62750000Y-27136000D03*
%TD*%
D12*
%TO.P,D28,1,K*%
%TO.N,ROWT*%
X169000000Y-117500000D03*
D13*
%TO.P,D28,2,A*%
%TO.N,Net-(D28-A)*%
X175728061Y-121077373D03*
%TD*%
D14*
%TO.P,SW19,*%
%TO.N,*%
X58000000Y-96350000D03*
X68000000Y-96350000D03*
D15*
%TO.P,SW19,1,1*%
%TO.N,Net-(D19-A)*%
X63000000Y-107400000D03*
%TO.P,SW19,2,2*%
%TO.N,COL1*%
X58000000Y-105300000D03*
X68000000Y-105300000D03*
%TD*%
D16*
%TO.P,D18,1,K*%
%TO.N,ROW3*%
X167500000Y-92000000D03*
D17*
%TO.P,D18,2,A*%
%TO.N,Net-(D18-A)*%
X167500000Y-84380000D03*
%TD*%
D14*
%TO.P,SW22,*%
%TO.N,*%
X115000001Y-86292194D03*
X125000001Y-86292194D03*
D15*
%TO.P,SW22,1,1*%
%TO.N,Net-(D22-A)*%
X120000001Y-97342194D03*
%TO.P,SW22,2,2*%
%TO.N,COL4*%
X115000001Y-95242194D03*
X125000001Y-95242194D03*
%TD*%
D16*
%TO.P,D8,1,K*%
%TO.N,ROW2*%
X91500000Y-73000000D03*
D17*
%TO.P,D8,2,A*%
%TO.N,Net-(D8-A)*%
X91500000Y-65380000D03*
%TD*%
D16*
%TO.P,D23,1,K*%
%TO.N,ROW4*%
X148500000Y-107500000D03*
D17*
%TO.P,D23,2,A*%
%TO.N,Net-(D23-A)*%
X148500000Y-99880000D03*
%TD*%
D14*
%TO.P,SW6,*%
%TO.N,*%
X153000000Y-39350000D03*
X163000000Y-39350000D03*
D15*
%TO.P,SW6,1,1*%
%TO.N,Net-(D6-A)*%
X158000000Y-50400000D03*
%TO.P,SW6,2,2*%
%TO.N,COL6*%
X153000000Y-48300000D03*
X163000000Y-48300000D03*
%TD*%
D16*
%TO.P,D1,1,K*%
%TO.N,ROW1*%
X72500000Y-53809999D03*
D17*
%TO.P,D1,2,A*%
%TO.N,Net-(D1-A)*%
X72500000Y-46189999D03*
%TD*%
D18*
%TO.P,R1,1*%
%TO.N,Net-(D30-RK)*%
X75630000Y-32250000D03*
D19*
%TO.P,R1,2*%
%TO.N,LEDR*%
X83250000Y-32250000D03*
%TD*%
D14*
%TO.P,SW9,*%
%TO.N,*%
X96000001Y-53292194D03*
X106000001Y-53292194D03*
D15*
%TO.P,SW9,1,1*%
%TO.N,Net-(D9-A)*%
X101000001Y-64342194D03*
%TO.P,SW9,2,2*%
%TO.N,COL3*%
X96000001Y-62242194D03*
X106000001Y-62242194D03*
%TD*%
D14*
%TO.P,SW16,*%
%TO.N,*%
X115000001Y-67292194D03*
X125000001Y-67292194D03*
D15*
%TO.P,SW16,1,1*%
%TO.N,Net-(D16-A)*%
X120000001Y-78342194D03*
%TO.P,SW16,2,2*%
%TO.N,COL4*%
X115000001Y-76242194D03*
X125000001Y-76242194D03*
%TD*%
D14*
%TO.P,SW14,*%
%TO.N,*%
X77000000Y-77050000D03*
X87000000Y-77050000D03*
D15*
%TO.P,SW14,1,1*%
%TO.N,Net-(D14-A)*%
X82000000Y-88100000D03*
%TO.P,SW14,2,2*%
%TO.N,COL2*%
X77000000Y-86000000D03*
X87000000Y-86000000D03*
%TD*%
D14*
%TO.P,SW25,*%
%TO.N,*%
X174781626Y-97667528D03*
X184781626Y-97667528D03*
D15*
%TO.P,SW25,1,1*%
%TO.N,Net-(D25-A)*%
X179781626Y-108717528D03*
%TO.P,SW25,2,2*%
%TO.N,COL6*%
X174781626Y-106617528D03*
X184781626Y-106617528D03*
%TD*%
D16*
%TO.P,D3,1,K*%
%TO.N,ROW1*%
X110500000Y-48500000D03*
D17*
%TO.P,D3,2,A*%
%TO.N,Net-(D3-A)*%
X110500000Y-40880000D03*
%TD*%
D16*
%TO.P,D2,1,K*%
%TO.N,ROW1*%
X91500000Y-53810000D03*
D17*
%TO.P,D2,2,A*%
%TO.N,Net-(D2-A)*%
X91500000Y-46190000D03*
%TD*%
D20*
%TO.P,JP2,1,A*%
%TO.N,Net-(JP2-A)*%
X182000000Y-44300000D03*
D21*
%TO.P,JP2,2,B*%
%TO.N,3v3*%
X182000000Y-43000000D03*
%TD*%
D14*
%TO.P,SW26,*%
%TO.N,*%
X121000001Y-116292194D03*
X131000001Y-116292194D03*
D15*
%TO.P,SW26,1,1*%
%TO.N,Net-(D26-A)*%
X126000001Y-127342194D03*
%TO.P,SW26,2,2*%
%TO.N,COL2*%
X121000001Y-125242194D03*
X131000001Y-125242194D03*
%TD*%
D16*
%TO.P,D10,1,K*%
%TO.N,ROW2*%
X129500000Y-63000000D03*
D17*
%TO.P,D10,2,A*%
%TO.N,Net-(D10-A)*%
X129500000Y-55380000D03*
%TD*%
D14*
%TO.P,SW8,*%
%TO.N,*%
X77000001Y-58292194D03*
X87000001Y-58292194D03*
D15*
%TO.P,SW8,1,1*%
%TO.N,Net-(D8-A)*%
X82000001Y-69342194D03*
%TO.P,SW8,2,2*%
%TO.N,COL2*%
X77000001Y-67242194D03*
X87000001Y-67242194D03*
%TD*%
D18*
%TO.P,R2,1*%
%TO.N,Net-(D30-GK)*%
X75380000Y-29500000D03*
D19*
%TO.P,R2,2*%
%TO.N,LEDG*%
X83000000Y-29500000D03*
%TD*%
D14*
%TO.P,SW20,*%
%TO.N,*%
X77000001Y-96292194D03*
X87000001Y-96292194D03*
D15*
%TO.P,SW20,1,1*%
%TO.N,Net-(D20-A)*%
X82000001Y-107342194D03*
%TO.P,SW20,2,2*%
%TO.N,COL2*%
X77000001Y-105242194D03*
X87000001Y-105242194D03*
%TD*%
D16*
%TO.P,D13,1,K*%
%TO.N,ROW3*%
X72500000Y-92000000D03*
D17*
%TO.P,D13,2,A*%
%TO.N,Net-(D13-A)*%
X72500000Y-84380000D03*
%TD*%
D14*
%TO.P,SW13,*%
%TO.N,*%
X58000001Y-77292194D03*
X68000001Y-77292194D03*
D15*
%TO.P,SW13,1,1*%
%TO.N,Net-(D13-A)*%
X63000001Y-88342194D03*
%TO.P,SW13,2,2*%
%TO.N,COL1*%
X58000001Y-86242194D03*
X68000001Y-86242194D03*
%TD*%
D20*
%TO.P,JP1,1,A*%
%TO.N,Net-(JP1-A)*%
X178250000Y-44300000D03*
D21*
%TO.P,JP1,2,B*%
%TO.N,3v3*%
X178250000Y-43000000D03*
%TD*%
D16*
%TO.P,D11,1,K*%
%TO.N,ROW2*%
X148500000Y-68000000D03*
D17*
%TO.P,D11,2,A*%
%TO.N,Net-(D11-A)*%
X148500000Y-60380000D03*
%TD*%
D16*
%TO.P,D5,1,K*%
%TO.N,ROW1*%
X148500000Y-49000000D03*
D17*
%TO.P,D5,2,A*%
%TO.N,Net-(D5-A)*%
X148500000Y-41380000D03*
%TD*%
D22*
%TO.P,U2,1,GP0(TX)*%
%TO.N,unconnected-(U2-GP0(TX)-Pad1)*%
X172750000Y-38460000D03*
%TO.P,U2,2,GP1(RX)*%
%TO.N,unconnected-(U2-GP1(RX)-Pad2)*%
X172750000Y-41000000D03*
%TO.P,U2,3,GND*%
%TO.N,unconnected-(U2-GND-Pad3)*%
X172750000Y-43540000D03*
%TO.P,U2,4,GND*%
%TO.N,Net-(JP1-A)*%
X172750000Y-46080000D03*
%TO.P,U2,5,SDA(GP2)*%
%TO.N,unconnected-(U2-SDA(GP2)-Pad5)*%
X172750000Y-48620000D03*
%TO.P,U2,6,SCL(GP3)*%
%TO.N,unconnected-(U2-SCL(GP3)-Pad6)*%
X172750000Y-51160000D03*
%TO.P,U2,7,GP4*%
%TO.N,COL1*%
X172750000Y-53700000D03*
%TO.P,U2,8,GP5*%
%TO.N,COL2*%
X172750000Y-56240000D03*
%TO.P,U2,9,GP6*%
%TO.N,COL3*%
X172750000Y-58780000D03*
%TO.P,U2,10,GP7*%
%TO.N,COL4*%
X172750000Y-61320000D03*
%TO.P,U2,11,GP8*%
%TO.N,COL5*%
X172750000Y-63860000D03*
%TO.P,U2,12,GP9*%
%TO.N,COL6*%
X172750000Y-66400000D03*
%TO.P,U2,13,GP21*%
%TO.N,ROW1*%
X187990000Y-66400000D03*
%TO.P,U2,14,GP23*%
%TO.N,ROW2*%
X187990000Y-63860000D03*
%TO.P,U2,15,GP20*%
%TO.N,ROW3*%
X187990000Y-61320000D03*
%TO.P,U2,16,GP22*%
%TO.N,ROW4*%
X187990000Y-58780000D03*
%TO.P,U2,17,GP26(A0)*%
%TO.N,ROWT*%
X187990000Y-56240000D03*
%TO.P,U2,18,GP27(A1)*%
%TO.N,LEDR*%
X187990000Y-53700000D03*
%TO.P,U2,19,GP28(A2)*%
%TO.N,LEDG*%
X187990000Y-51160000D03*
%TO.P,U2,20,GP29(A3)*%
%TO.N,LEDB*%
X187990000Y-48620000D03*
%TO.P,U2,21,3v3*%
%TO.N,Net-(JP2-A)*%
X187990000Y-46080000D03*
%TO.P,U2,22,RST*%
%TO.N,unconnected-(U2-RST-Pad22)*%
X187990000Y-43540000D03*
%TO.P,U2,23,GND*%
%TO.N,unconnected-(U2-GND-Pad23)*%
X187990000Y-41000000D03*
D16*
%TO.P,U2,24,5V*%
%TO.N,unconnected-(U2-5V-Pad24)*%
X187990000Y-38460000D03*
D22*
%TO.P,U2,33,GP10(B-)*%
%TO.N,unconnected-(U2-GP10(B-)-Pad33)*%
X172750000Y-35920000D03*
%TO.P,U2,34,GP11(B+)*%
%TO.N,unconnected-(U2-GP11(B+)-Pad34)*%
X187990000Y-35920000D03*
%TD*%
D16*
%TO.P,D25,1,K*%
%TO.N,ROWT*%
X172940000Y-112500000D03*
D17*
%TO.P,D25,2,A*%
%TO.N,Net-(D25-A)*%
X180560000Y-112500000D03*
%TD*%
D14*
%TO.P,SW28,*%
%TO.N,*%
X165852920Y-121117419D03*
X174682396Y-125812135D03*
D15*
%TO.P,SW28,1,1*%
%TO.N,COL4*%
X165079997Y-133221348D03*
%TO.P,SW28,2,2*%
%TO.N,Net-(D28-A)*%
X161651149Y-129019800D03*
X170480625Y-133714516D03*
%TD*%
D14*
%TO.P,SW4,*%
%TO.N,*%
X115000000Y-29350000D03*
X125000000Y-29350000D03*
D15*
%TO.P,SW4,1,1*%
%TO.N,Net-(D4-A)*%
X120000000Y-40400000D03*
%TO.P,SW4,2,2*%
%TO.N,COL4*%
X115000000Y-38300000D03*
X125000000Y-38300000D03*
%TD*%
D14*
%TO.P,SW1,*%
%TO.N,*%
X58000000Y-39500000D03*
X68000000Y-39500000D03*
D15*
%TO.P,SW1,1,1*%
%TO.N,Net-(D1-A)*%
X63000000Y-50550000D03*
%TO.P,SW1,2,2*%
%TO.N,COL1*%
X58000000Y-48450000D03*
X68000000Y-48450000D03*
%TD*%
D14*
%TO.P,SW17,*%
%TO.N,*%
X134000001Y-72292194D03*
X144000001Y-72292194D03*
D15*
%TO.P,SW17,1,1*%
%TO.N,Net-(D17-A)*%
X139000001Y-83342194D03*
%TO.P,SW17,2,2*%
%TO.N,COL5*%
X134000001Y-81242194D03*
X144000001Y-81242194D03*
%TD*%
D16*
%TO.P,D22,1,K*%
%TO.N,ROW4*%
X129500000Y-103000000D03*
D17*
%TO.P,D22,2,A*%
%TO.N,Net-(D22-A)*%
X129500000Y-95380000D03*
%TD*%
D14*
%TO.P,SW3,*%
%TO.N,*%
X96000001Y-34292194D03*
X106000001Y-34292194D03*
D15*
%TO.P,SW3,1,1*%
%TO.N,Net-(D3-A)*%
X101000001Y-45342194D03*
%TO.P,SW3,2,2*%
%TO.N,COL3*%
X96000001Y-43242194D03*
X106000001Y-43242194D03*
%TD*%
D14*
%TO.P,SW27,*%
%TO.N,*%
X140000001Y-116292194D03*
X150000001Y-116292194D03*
D15*
%TO.P,SW27,1,1*%
%TO.N,COL3*%
X145000001Y-127342194D03*
%TO.P,SW27,2,2*%
%TO.N,Net-(D27-A)*%
X140000001Y-125242194D03*
X150000001Y-125242194D03*
%TD*%
D16*
%TO.P,D17,1,K*%
%TO.N,ROW3*%
X148500000Y-87000000D03*
D17*
%TO.P,D17,2,A*%
%TO.N,Net-(D17-A)*%
X148500000Y-79380000D03*
%TD*%
D16*
%TO.P,D6,1,K*%
%TO.N,ROW1*%
X168000000Y-54000000D03*
D17*
%TO.P,D6,2,A*%
%TO.N,Net-(D6-A)*%
X168000000Y-46380000D03*
%TD*%
D16*
%TO.P,D19,1,K*%
%TO.N,ROW4*%
X72500000Y-108810000D03*
D17*
%TO.P,D19,2,A*%
%TO.N,Net-(D19-A)*%
X72500000Y-101190000D03*
%TD*%
D16*
%TO.P,D16,1,K*%
%TO.N,ROW3*%
X129500000Y-82000000D03*
D17*
%TO.P,D16,2,A*%
%TO.N,Net-(D16-A)*%
X129500000Y-74380000D03*
%TD*%
D16*
%TO.P,D27,1,K*%
%TO.N,ROWT*%
X148810000Y-111500000D03*
D17*
%TO.P,D27,2,A*%
%TO.N,Net-(D27-A)*%
X141190000Y-111500000D03*
%TD*%
D16*
%TO.P,D4,1,K*%
%TO.N,ROW1*%
X129500000Y-44500000D03*
D17*
%TO.P,D4,2,A*%
%TO.N,Net-(D4-A)*%
X129500000Y-36880000D03*
%TD*%
D14*
%TO.P,SW2,*%
%TO.N,*%
X77000000Y-39350000D03*
X87000000Y-39350000D03*
D15*
%TO.P,SW2,1,1*%
%TO.N,Net-(D2-A)*%
X82000000Y-50400000D03*
%TO.P,SW2,2,2*%
%TO.N,COL2*%
X77000000Y-48300000D03*
X87000000Y-48300000D03*
%TD*%
D23*
%TO.P,D29,1,K*%
%TO.N,ROWT*%
X176500000Y-137500000D03*
D24*
%TO.P,D29,2,A*%
%TO.N,Net-(D29-A)*%
X182817266Y-133238950D03*
%TD*%
D14*
%TO.P,SW12,*%
%TO.N,*%
X153000001Y-58292194D03*
X163000001Y-58292194D03*
D15*
%TO.P,SW12,1,1*%
%TO.N,Net-(D12-A)*%
X158000001Y-69342194D03*
%TO.P,SW12,2,2*%
%TO.N,COL6*%
X153000001Y-67242194D03*
X163000001Y-67242194D03*
%TD*%
D16*
%TO.P,D9,1,K*%
%TO.N,ROW2*%
X110500000Y-68000000D03*
D17*
%TO.P,D9,2,A*%
%TO.N,Net-(D9-A)*%
X110500000Y-60380000D03*
%TD*%
D14*
%TO.P,SW5,*%
%TO.N,*%
X134000000Y-34350000D03*
X144000000Y-34350000D03*
D15*
%TO.P,SW5,1,1*%
%TO.N,Net-(D5-A)*%
X139000000Y-45400000D03*
%TO.P,SW5,2,2*%
%TO.N,COL5*%
X134000000Y-43300000D03*
X144000000Y-43300000D03*
%TD*%
D16*
%TO.P,D12,1,K*%
%TO.N,ROW2*%
X167500000Y-72500000D03*
D17*
%TO.P,D12,2,A*%
%TO.N,Net-(D12-A)*%
X167500000Y-64880000D03*
%TD*%
D16*
%TO.P,D14,1,K*%
%TO.N,ROW3*%
X91500000Y-92000000D03*
D17*
%TO.P,D14,2,A*%
%TO.N,Net-(D14-A)*%
X91500000Y-84380000D03*
%TD*%
D16*
%TO.P,D7,1,K*%
%TO.N,ROW2*%
X72500000Y-73000000D03*
D17*
%TO.P,D7,2,A*%
%TO.N,Net-(D7-A)*%
X72500000Y-65380000D03*
%TD*%
D14*
%TO.P,SW18,*%
%TO.N,*%
X153000001Y-77292194D03*
X163000001Y-77292194D03*
D15*
%TO.P,SW18,1,1*%
%TO.N,Net-(D18-A)*%
X158000001Y-88342194D03*
%TO.P,SW18,2,2*%
%TO.N,COL6*%
X153000001Y-86242194D03*
X163000001Y-86242194D03*
%TD*%
D14*
%TO.P,SW11,*%
%TO.N,*%
X134000000Y-53350000D03*
X144000000Y-53350000D03*
D15*
%TO.P,SW11,1,1*%
%TO.N,Net-(D11-A)*%
X139000000Y-64400000D03*
%TO.P,SW11,2,2*%
%TO.N,COL5*%
X134000000Y-62300000D03*
X144000000Y-62300000D03*
%TD*%
D14*
%TO.P,SW10,*%
%TO.N,*%
X115000000Y-48350000D03*
X125000000Y-48350000D03*
D15*
%TO.P,SW10,1,1*%
%TO.N,Net-(D10-A)*%
X120000000Y-59400000D03*
%TO.P,SW10,2,2*%
%TO.N,COL4*%
X115000000Y-57300000D03*
X125000000Y-57300000D03*
%TD*%
D14*
%TO.P,SW23,*%
%TO.N,*%
X134000001Y-91292194D03*
X144000001Y-91292194D03*
D15*
%TO.P,SW23,1,1*%
%TO.N,Net-(D23-A)*%
X139000001Y-102342194D03*
%TO.P,SW23,2,2*%
%TO.N,COL5*%
X134000001Y-100242194D03*
X144000001Y-100242194D03*
%TD*%
D16*
%TO.P,D21,1,K*%
%TO.N,ROW4*%
X110500000Y-103500000D03*
D17*
%TO.P,D21,2,A*%
%TO.N,Net-(D21-A)*%
X110500000Y-95880000D03*
%TD*%
D14*
%TO.P,SW15,*%
%TO.N,*%
X96000001Y-72292194D03*
X106000001Y-72292194D03*
D15*
%TO.P,SW15,1,1*%
%TO.N,Net-(D15-A)*%
X101000001Y-83342194D03*
%TO.P,SW15,2,2*%
%TO.N,COL3*%
X96000001Y-81242194D03*
X106000001Y-81242194D03*
%TD*%
D14*
%TO.P,SW21,*%
%TO.N,*%
X96000001Y-91292194D03*
X106000001Y-91292194D03*
D15*
%TO.P,SW21,1,1*%
%TO.N,Net-(D21-A)*%
X101000001Y-102342194D03*
%TO.P,SW21,2,2*%
%TO.N,COL3*%
X96000001Y-100242194D03*
X106000001Y-100242194D03*
%TD*%
D14*
%TO.P,SW29,*%
%TO.N,*%
X187142835Y-136706026D03*
X192734764Y-144996401D03*
D15*
%TO.P,SW29,1,1*%
%TO.N,COL5*%
X180777934Y-147030295D03*
%TO.P,SW29,2,2*%
%TO.N,Net-(D29-A)*%
X179722949Y-141710802D03*
X185314878Y-150001178D03*
%TD*%
D14*
%TO.P,SW7,*%
%TO.N,*%
X58000000Y-58350000D03*
X68000000Y-58350000D03*
D15*
%TO.P,SW7,1,1*%
%TO.N,Net-(D7-A)*%
X63000000Y-69400000D03*
%TO.P,SW7,2,2*%
%TO.N,COL1*%
X58000000Y-67300000D03*
X68000000Y-67300000D03*
%TD*%
D16*
%TO.P,D26,1,K*%
%TO.N,ROWT*%
X130000000Y-111500000D03*
D17*
%TO.P,D26,2,A*%
%TO.N,Net-(D26-A)*%
X122380000Y-111500000D03*
%TD*%
D16*
%TO.P,D24,1,K*%
%TO.N,ROW4*%
X167500000Y-110500000D03*
D17*
%TO.P,D24,2,A*%
%TO.N,Net-(D24-A)*%
X167500000Y-102880000D03*
%TD*%
D18*
%TO.P,R3,1*%
%TO.N,Net-(D30-BK)*%
X75380000Y-27000000D03*
D19*
%TO.P,R3,2*%
%TO.N,LEDB*%
X83000000Y-27000000D03*
%TD*%
D16*
%TO.P,D20,1,K*%
%TO.N,ROW4*%
X91500000Y-108810000D03*
D17*
%TO.P,D20,2,A*%
%TO.N,Net-(D20-A)*%
X91500000Y-101190000D03*
%TD*%
D14*
%TO.P,SW24,*%
%TO.N,*%
X153000001Y-96292194D03*
X163000001Y-96292194D03*
D15*
%TO.P,SW24,1,1*%
%TO.N,Net-(D24-A)*%
X158000001Y-107342194D03*
%TO.P,SW24,2,2*%
%TO.N,COL6*%
X153000001Y-105242194D03*
X163000001Y-105242194D03*
%TD*%
D16*
%TO.P,D15,1,K*%
%TO.N,ROW3*%
X110500000Y-87000000D03*
D17*
%TO.P,D15,2,A*%
%TO.N,Net-(D15-A)*%
X110500000Y-79380000D03*
%TD*%
D25*
%TO.N,Net-(D30-RK)*%
X75630000Y-32250000D02*
X74267000Y-33613000D01*
X74267000Y-33613000D02*
X62750000Y-33613000D01*
%TO.N,Net-(D30-GK)*%
X75380000Y-29500000D02*
X73426000Y-31454000D01*
X73426000Y-31454000D02*
X62750000Y-31454000D01*
%TO.N,Net-(D30-BK)*%
X75380000Y-27000000D02*
X73085000Y-29295000D01*
X73085000Y-29295000D02*
X62750000Y-29295000D01*
%TO.N,3v3*%
X89000500Y-25999500D02*
X63886500Y-25999500D01*
X63886500Y-25999500D02*
X62750000Y-27136000D01*
%TO.N,ROW1*%
X149500000Y-54000000D02*
X148500000Y-53000000D01*
X114500000Y-44500000D02*
X110500000Y-48500000D01*
X168000000Y-54000000D02*
X168750000Y-54750000D01*
X186360000Y-68000000D02*
X188000000Y-66360000D01*
X170500000Y-68000000D02*
X186360000Y-68000000D01*
X148500000Y-53000000D02*
X148500000Y-49000000D01*
X168000000Y-54000000D02*
X149500000Y-54000000D01*
X110500000Y-48500000D02*
X96810000Y-48500000D01*
X129500000Y-44500000D02*
X114500000Y-44500000D01*
X134000000Y-49000000D02*
X148500000Y-49000000D01*
X168750000Y-54750000D02*
X168750000Y-66250000D01*
X91500000Y-53810000D02*
X72500000Y-53809999D01*
X129500000Y-44500000D02*
X134000000Y-49000000D01*
X168750000Y-66250000D02*
X170500000Y-68000000D01*
X96810000Y-48500000D02*
X91500000Y-53810000D01*
%TO.N,Net-(D1-A)*%
X63000000Y-50550000D02*
X67360001Y-46189999D01*
X67360001Y-46189999D02*
X72500000Y-46189999D01*
%TO.N,Net-(D2-A)*%
X86210000Y-46190000D02*
X91500000Y-46190000D01*
X82000000Y-50400000D02*
X86210000Y-46190000D01*
%TO.N,Net-(D3-A)*%
X105462195Y-40880000D02*
X110500000Y-40880000D01*
X101000001Y-45342194D02*
X105462195Y-40880000D01*
%TO.N,Net-(D4-A)*%
X123520000Y-36880000D02*
X129500000Y-36880000D01*
X120000000Y-40400000D02*
X123520000Y-36880000D01*
%TO.N,Net-(D5-A)*%
X139000000Y-45400000D02*
X143020000Y-41380000D01*
X143020000Y-41380000D02*
X148500000Y-41380000D01*
%TO.N,Net-(D6-A)*%
X158000000Y-50400000D02*
X162020000Y-46380000D01*
X162020000Y-46380000D02*
X168000000Y-46380000D01*
%TO.N,Net-(D7-A)*%
X63000000Y-69400000D02*
X67020000Y-65380000D01*
X67020000Y-65380000D02*
X72500000Y-65380000D01*
%TO.N,ROW2*%
X134500000Y-68000000D02*
X148500000Y-68000000D01*
X110500000Y-68000000D02*
X115500000Y-63000000D01*
X72500000Y-73000000D02*
X91500000Y-73000000D01*
X96500000Y-68000000D02*
X110500000Y-68000000D01*
X148500000Y-71500000D02*
X149500000Y-72500000D01*
X149500000Y-72500000D02*
X167500000Y-72500000D01*
X189101000Y-67204075D02*
X189101000Y-64921000D01*
X183805075Y-72500000D02*
X189101000Y-67204075D01*
X189101000Y-64921000D02*
X188000000Y-63820000D01*
X115500000Y-63000000D02*
X129500000Y-63000000D01*
X91500000Y-73000000D02*
X96500000Y-68000000D01*
X167500000Y-72500000D02*
X183805075Y-72500000D01*
X129500000Y-63000000D02*
X134500000Y-68000000D01*
X148500000Y-68000000D02*
X148500000Y-71500000D01*
%TO.N,Net-(D8-A)*%
X85962195Y-65380000D02*
X91500000Y-65380000D01*
X82000001Y-69342194D02*
X85962195Y-65380000D01*
%TO.N,Net-(D9-A)*%
X104962195Y-60380000D02*
X110500000Y-60380000D01*
X101000001Y-64342194D02*
X104962195Y-60380000D01*
%TO.N,Net-(D10-A)*%
X124020000Y-55380000D02*
X129500000Y-55380000D01*
X120000000Y-59400000D02*
X124020000Y-55380000D01*
%TO.N,Net-(D11-A)*%
X139000000Y-64400000D02*
X143020000Y-60380000D01*
X143020000Y-60380000D02*
X148500000Y-60380000D01*
%TO.N,Net-(D12-A)*%
X162462195Y-64880000D02*
X167500000Y-64880000D01*
X158000001Y-69342194D02*
X162462195Y-64880000D01*
%TO.N,Net-(D13-A)*%
X66962195Y-84380000D02*
X72500000Y-84380000D01*
X63000001Y-88342194D02*
X66962195Y-84380000D01*
%TO.N,ROW3*%
X115500000Y-82000000D02*
X129500000Y-82000000D01*
X96500000Y-87000000D02*
X110500000Y-87000000D01*
X110500000Y-87000000D02*
X115500000Y-82000000D01*
X129500000Y-82000000D02*
X134500000Y-87000000D01*
X167500000Y-92000000D02*
X189502000Y-69998000D01*
X148500000Y-87000000D02*
X153500000Y-92000000D01*
X91500000Y-92000000D02*
X96500000Y-87000000D01*
X134500000Y-87000000D02*
X148500000Y-87000000D01*
X189502000Y-62782000D02*
X188000000Y-61280000D01*
X72500000Y-92000000D02*
X91500000Y-92000000D01*
X153500000Y-92000000D02*
X167500000Y-92000000D01*
X189502000Y-69998000D02*
X189502000Y-62782000D01*
%TO.N,Net-(D14-A)*%
X85720000Y-84380000D02*
X91500000Y-84380000D01*
X82000000Y-88100000D02*
X85720000Y-84380000D01*
%TO.N,Net-(D15-A)*%
X104962195Y-79380000D02*
X110500000Y-79380000D01*
X101000001Y-83342194D02*
X104962195Y-79380000D01*
%TO.N,Net-(D16-A)*%
X120000001Y-78342194D02*
X123962195Y-74380000D01*
X123962195Y-74380000D02*
X129500000Y-74380000D01*
%TO.N,Net-(D17-A)*%
X142962195Y-79380000D02*
X148500000Y-79380000D01*
X139000001Y-83342194D02*
X142962195Y-79380000D01*
%TO.N,Net-(D18-A)*%
X161962195Y-84380000D02*
X167500000Y-84380000D01*
X158000001Y-88342194D02*
X161962195Y-84380000D01*
%TO.N,ROW4*%
X129500000Y-103000000D02*
X134000000Y-107500000D01*
X189903000Y-60643000D02*
X188000000Y-58740000D01*
X148500000Y-107500000D02*
X151500000Y-110500000D01*
X151500000Y-110500000D02*
X167500000Y-110500000D01*
X72500000Y-108810000D02*
X91500000Y-108810000D01*
X134000000Y-107500000D02*
X148500000Y-107500000D01*
X168601000Y-109399000D02*
X168601000Y-91466100D01*
X189903000Y-70164100D02*
X189903000Y-60643000D01*
X110500000Y-108810000D02*
X123690000Y-108810000D01*
X110500000Y-103500000D02*
X110500000Y-108810000D01*
X91500000Y-108810000D02*
X110500000Y-108810000D01*
X123690000Y-108810000D02*
X129500000Y-103000000D01*
X168601000Y-91466100D02*
X189903000Y-70164100D01*
X167500000Y-110500000D02*
X168601000Y-109399000D01*
%TO.N,Net-(D19-A)*%
X69100000Y-107400000D02*
X72500000Y-104000000D01*
X72500000Y-104000000D02*
X72500000Y-101190000D01*
X63000000Y-107400000D02*
X69100000Y-107400000D01*
%TO.N,Net-(D20-A)*%
X82000001Y-107342194D02*
X86907806Y-107342194D01*
X91500000Y-102750000D02*
X91500000Y-101190000D01*
X86907806Y-107342194D02*
X91500000Y-102750000D01*
%TO.N,Net-(D21-A)*%
X110500000Y-98000000D02*
X110500000Y-95880000D01*
X106157806Y-102342194D02*
X110500000Y-98000000D01*
X101000001Y-102342194D02*
X106157806Y-102342194D01*
%TO.N,Net-(D22-A)*%
X120000001Y-97342194D02*
X120592195Y-96750000D01*
X120592195Y-96750000D02*
X128130000Y-96750000D01*
X128130000Y-96750000D02*
X129500000Y-95380000D01*
%TO.N,Net-(D23-A)*%
X139000001Y-102342194D02*
X142592195Y-98750000D01*
X147370000Y-98750000D02*
X148500000Y-99880000D01*
X142592195Y-98750000D02*
X147370000Y-98750000D01*
%TO.N,Net-(D24-A)*%
X158000001Y-107342194D02*
X162462195Y-102880000D01*
X162462195Y-102880000D02*
X167500000Y-102880000D01*
%TO.N,Net-(D25-A)*%
X179781626Y-108717528D02*
X179781626Y-111721626D01*
X179781626Y-111721626D02*
X180560000Y-112500000D01*
%TO.N,ROWT*%
X131101000Y-110399000D02*
X147709000Y-110399000D01*
X158500000Y-128481243D02*
X167518757Y-137500000D01*
X169000000Y-117500000D02*
X169000000Y-116440000D01*
X147709000Y-110399000D02*
X148810000Y-111500000D01*
X190304000Y-58504000D02*
X188000000Y-56200000D01*
X169591532Y-116908468D02*
X169591532Y-91042668D01*
X169000000Y-117500000D02*
X169591532Y-116908468D01*
X130000000Y-111500000D02*
X131101000Y-110399000D01*
X155000000Y-117500000D02*
X158500000Y-117500000D01*
X190304000Y-70330200D02*
X190304000Y-58504000D01*
X148810000Y-111500000D02*
X149000000Y-111500000D01*
X158500000Y-117500000D02*
X169000000Y-117500000D01*
X169000000Y-116440000D02*
X172940000Y-112500000D01*
X169591532Y-91042668D02*
X190304000Y-70330200D01*
X167518757Y-137500000D02*
X176500000Y-137500000D01*
X149000000Y-111500000D02*
X155000000Y-117500000D01*
X158500000Y-117500000D02*
X158500000Y-128481243D01*
%TO.N,Net-(D26-A)*%
X122380000Y-111500000D02*
X122380000Y-123722193D01*
X122380000Y-123722193D02*
X126000001Y-127342194D01*
%TO.N,Net-(D27-A)*%
X140000001Y-125242194D02*
X150000001Y-125242194D01*
X141190000Y-111500000D02*
X141190000Y-124052195D01*
X141190000Y-124052195D02*
X140000001Y-125242194D01*
%TO.N,Net-(D28-A)*%
X175728060Y-121077373D02*
X169593576Y-121077373D01*
X169683184Y-134500000D02*
X170480625Y-133702559D01*
X161651149Y-129019800D02*
X163269800Y-129019800D01*
X163269800Y-129019800D02*
X168750000Y-134500000D01*
X169593576Y-121077373D02*
X161651149Y-129019800D01*
X168750000Y-134500000D02*
X169683184Y-134500000D01*
%TO.N,Net-(D29-A)*%
X179722949Y-136333267D02*
X179722949Y-141710802D01*
X185314878Y-149314878D02*
X185314878Y-150001178D01*
X179722949Y-143722949D02*
X185314878Y-149314878D01*
X182817266Y-133238950D02*
X179722949Y-136333267D01*
X179722949Y-141710802D02*
X179722949Y-143722949D01*
%TO.N,3v3*%
X161899300Y-34948000D02*
X149765100Y-34948000D01*
X177649000Y-42399000D02*
X169350300Y-42399000D01*
X169350300Y-42399000D02*
X161899300Y-34948000D01*
X178250000Y-43000000D02*
X182000000Y-43000000D01*
X178250000Y-43000000D02*
X177649000Y-42399000D01*
X149765100Y-34948000D02*
X146037347Y-31220247D01*
X146037347Y-31220247D02*
X129029752Y-31220247D01*
X129029752Y-31220247D02*
X125559505Y-27750000D01*
X90751000Y-27750000D02*
X89000500Y-25999500D01*
X125559505Y-27750000D02*
X90751000Y-27750000D01*
%TO.N,LEDR*%
X145500000Y-33000000D02*
X148750000Y-36250000D01*
X186840000Y-52500000D02*
X188000000Y-53660000D01*
X161500000Y-36250000D02*
X169750000Y-44500000D01*
X170750000Y-52500000D02*
X186840000Y-52500000D01*
X83250000Y-32250000D02*
X84250000Y-31250000D01*
X148750000Y-36250000D02*
X161500000Y-36250000D01*
X84250000Y-31250000D02*
X123250000Y-31250000D01*
X169750000Y-51500000D02*
X170750000Y-52500000D01*
X123250000Y-31250000D02*
X125000000Y-33000000D01*
X125000000Y-33000000D02*
X145500000Y-33000000D01*
X169750000Y-44500000D02*
X169750000Y-51500000D01*
%TO.N,LEDG*%
X171019000Y-50019000D02*
X186899000Y-50019000D01*
X170250000Y-49250000D02*
X171019000Y-50019000D01*
X123750000Y-30500000D02*
X125750000Y-32500000D01*
X125750000Y-32500000D02*
X146000000Y-32500000D01*
X149250000Y-35750000D02*
X161567100Y-35750000D01*
X161567100Y-35750000D02*
X170250000Y-44432900D01*
X170250000Y-44432900D02*
X170250000Y-49250000D01*
X83000000Y-29500000D02*
X84000000Y-30500000D01*
X84000000Y-30500000D02*
X123750000Y-30500000D01*
X186899000Y-50019000D02*
X188000000Y-51120000D01*
X146000000Y-32500000D02*
X149250000Y-35750000D01*
%TO.N,LEDB*%
X146000000Y-31750000D02*
X149599000Y-35349000D01*
X115492405Y-28250000D02*
X124507595Y-28250000D01*
X186670000Y-47250000D02*
X188000000Y-48580000D01*
X87750000Y-28250000D02*
X114507595Y-28250000D01*
X114507595Y-28250000D02*
X114533595Y-28224000D01*
X83000000Y-27000000D02*
X86500000Y-27000000D01*
X124533595Y-28224000D02*
X125466405Y-28224000D01*
X149599000Y-35349000D02*
X161733200Y-35349000D01*
X115466405Y-28224000D02*
X115492405Y-28250000D01*
X128992405Y-31750000D02*
X146000000Y-31750000D01*
X125466405Y-28224000D02*
X128992405Y-31750000D01*
X171000000Y-44615800D02*
X171000000Y-46761640D01*
X124507595Y-28250000D02*
X124533595Y-28224000D01*
X114533595Y-28224000D02*
X115466405Y-28224000D01*
X86500000Y-27000000D02*
X87750000Y-28250000D01*
X171488360Y-47250000D02*
X186670000Y-47250000D01*
X171000000Y-46761640D02*
X171488360Y-47250000D01*
X161733200Y-35349000D02*
X171000000Y-44615800D01*
%TO.N,Net-(JP2-A)*%
X186260000Y-44300000D02*
X188000000Y-46040000D01*
X182000000Y-44300000D02*
X186260000Y-44300000D01*
%TO.N,Net-(JP1-A)*%
X178250000Y-44300000D02*
X174500000Y-44300000D01*
X174500000Y-44300000D02*
X172760000Y-46040000D01*
%TD*%
M02*
