%TF.GenerationSoftware,KiCad,Pcbnew,9.0.1*%
%TF.CreationDate,2025-07-07T00:05:24+02:00*%
%TF.ProjectId,LQS-keyboard,4c51532d-6b65-4796-926f-6172642e6b69,rev?*%
%TF.SameCoordinates,Original*%
%TF.FileFunction,Soldermask,Top*%
%TF.FilePolarity,Negative*%
%FSLAX46Y46*%
G04 Gerber Fmt 4.6, Leading zero omitted, Abs format (unit mm)*
G04 Created by KiCad (PCBNEW 9.0.1) date 2025-07-07 00:05:24*
%MOMM*%
%LPD*%
G01*
G04 APERTURE LIST*
G04 Aperture macros list*
%AMHorizOval*
0 Thick line with rounded ends*
0 $1 width*
0 $2 $3 position (X,Y) of the first rounded end (center of the circle)*
0 $4 $5 position (X,Y) of the second rounded end (center of the circle)*
0 Add line between two ends*
20,1,$1,$2,$3,$4,$5,0*
0 Add two circle primitives to create the rounded ends*
1,1,$1,$2,$3*
1,1,$1,$4,$5*%
%AMRotRect*
0 Rectangle, with rotation*
0 The origin of the aperture is its center*
0 $1 length*
0 $2 width*
0 $3 Rotation angle, in degrees counterclockwise*
0 Add horizontal line*
21,1,$1,$2,0,0,$3*%
%AMFreePoly0*
4,1,23,0.500000,-0.750000,0.000000,-0.750000,0.000000,-0.745722,-0.065263,-0.745722,-0.191342,-0.711940,-0.304381,-0.646677,-0.396677,-0.554381,-0.461940,-0.441342,-0.495722,-0.315263,-0.495722,-0.250000,-0.500000,-0.250000,-0.500000,0.250000,-0.495722,0.250000,-0.495722,0.315263,-0.461940,0.441342,-0.396677,0.554381,-0.304381,0.646677,-0.191342,0.711940,-0.065263,0.745722,0.000000,0.745722,
0.000000,0.750000,0.500000,0.750000,0.500000,-0.750000,0.500000,-0.750000,$1*%
%AMFreePoly1*
4,1,23,0.000000,0.745722,0.065263,0.745722,0.191342,0.711940,0.304381,0.646677,0.396677,0.554381,0.461940,0.441342,0.495722,0.315263,0.495722,0.250000,0.500000,0.250000,0.500000,-0.250000,0.495722,-0.250000,0.495722,-0.315263,0.461940,-0.441342,0.396677,-0.554381,0.304381,-0.646677,0.191342,-0.711940,0.065263,-0.745722,0.000000,-0.745722,0.000000,-0.750000,-0.500000,-0.750000,
-0.500000,0.750000,0.000000,0.750000,0.000000,0.745722,0.000000,0.745722,$1*%
G04 Aperture macros list end*
%ADD10RotRect,1.600000X1.600000X332.000000*%
%ADD11HorizOval,1.600000X0.000000X0.000000X0.000000X0.000000X0*%
%ADD12C,1.701800*%
%ADD13C,1.650000*%
%ADD14C,5.000000*%
%ADD15C,2.000000*%
%ADD16R,1.600000X1.600000*%
%ADD17O,1.600000X1.600000*%
%ADD18C,1.400000*%
%ADD19O,1.400000X1.400000*%
%ADD20FreePoly0,90.000000*%
%ADD21FreePoly1,90.000000*%
%ADD22C,2.200000*%
%ADD23C,1.600000*%
%ADD24R,1.300000X1.300000*%
%ADD25C,1.800000*%
%ADD26RotRect,1.600000X1.600000X34.000000*%
%ADD27HorizOval,1.600000X0.000000X0.000000X0.000000X0.000000X0*%
G04 APERTURE END LIST*
%TO.C,JP2*%
G36*
X181250000Y-43800000D02*
G01*
X182750000Y-43800000D01*
X182750000Y-43500000D01*
X181250000Y-43500000D01*
X181250000Y-43800000D01*
G37*
%TO.C,JP1*%
G36*
X177500000Y-43800000D02*
G01*
X179000000Y-43800000D01*
X179000000Y-43500000D01*
X177500000Y-43500000D01*
X177500000Y-43800000D01*
G37*
%TD*%
D10*
%TO.C,D28*%
X169000000Y-117500000D03*
D11*
X175728061Y-121077373D03*
%TD*%
D12*
%TO.C,SW19*%
X57500000Y-101500000D03*
D13*
X58000000Y-96350000D03*
D14*
X63000000Y-101500000D03*
D12*
X68500000Y-101500000D03*
D15*
X63000000Y-107400000D03*
X68000000Y-105300000D03*
%TD*%
D16*
%TO.C,D18*%
X167500000Y-92000000D03*
D17*
X167500000Y-84380000D03*
%TD*%
D12*
%TO.C,SW22*%
X114500001Y-91442194D03*
D13*
X115000001Y-86292194D03*
D14*
X120000001Y-91442194D03*
D12*
X125500001Y-91442194D03*
D15*
X120000001Y-97342194D03*
X125000001Y-95242194D03*
%TD*%
D16*
%TO.C,D8*%
X91500000Y-73000000D03*
D17*
X91500000Y-65380000D03*
%TD*%
D16*
%TO.C,D23*%
X148500000Y-107500000D03*
D17*
X148500000Y-99880000D03*
%TD*%
D12*
%TO.C,SW6*%
X152500000Y-44500000D03*
D13*
X153000000Y-39350000D03*
D14*
X158000000Y-44500000D03*
D12*
X163500000Y-44500000D03*
D15*
X158000000Y-50400000D03*
X163000000Y-48300000D03*
%TD*%
D16*
%TO.C,D1*%
X72500000Y-53809999D03*
D17*
X72500000Y-46189999D03*
%TD*%
D18*
%TO.C,R1*%
X75630000Y-32250000D03*
D19*
X83250000Y-32250000D03*
%TD*%
D12*
%TO.C,SW9*%
X95500001Y-58442194D03*
D13*
X96000001Y-53292194D03*
D14*
X101000001Y-58442194D03*
D12*
X106500001Y-58442194D03*
D15*
X101000001Y-64342194D03*
X106000001Y-62242194D03*
%TD*%
D12*
%TO.C,SW16*%
X114500001Y-72442194D03*
D13*
X115000001Y-67292194D03*
D14*
X120000001Y-72442194D03*
D12*
X125500001Y-72442194D03*
D15*
X120000001Y-78342194D03*
X125000001Y-76242194D03*
%TD*%
D12*
%TO.C,SW14*%
X76500000Y-82200000D03*
D13*
X77000000Y-77050000D03*
D14*
X82000000Y-82200000D03*
D12*
X87500000Y-82200000D03*
D15*
X82000000Y-88100000D03*
X87000000Y-86000000D03*
%TD*%
D12*
%TO.C,SW25*%
X174281626Y-102817528D03*
D13*
X174781626Y-97667528D03*
D14*
X179781626Y-102817528D03*
D12*
X185281626Y-102817528D03*
D15*
X179781626Y-108717528D03*
X184781626Y-106617528D03*
%TD*%
D16*
%TO.C,D3*%
X110500000Y-48500000D03*
D17*
X110500000Y-40880000D03*
%TD*%
D16*
%TO.C,D2*%
X91500000Y-53810000D03*
D17*
X91500000Y-46190000D03*
%TD*%
D20*
%TO.C,JP2*%
X182000000Y-44300000D03*
D21*
X182000000Y-43000000D03*
%TD*%
D12*
%TO.C,SW26*%
X120500001Y-121442194D03*
D13*
X121000001Y-116292194D03*
D14*
X126000001Y-121442194D03*
D12*
X131500001Y-121442194D03*
D15*
X126000001Y-127342194D03*
X131000001Y-125242194D03*
%TD*%
D22*
%TO.C,REF\u002A\u002A*%
X90250000Y-33750000D03*
%TD*%
D16*
%TO.C,D10*%
X129500000Y-63000000D03*
D17*
X129500000Y-55380000D03*
%TD*%
D12*
%TO.C,SW8*%
X76500001Y-63442194D03*
D13*
X77000001Y-58292194D03*
D14*
X82000001Y-63442194D03*
D12*
X87500001Y-63442194D03*
D15*
X82000001Y-69342194D03*
X87000001Y-67242194D03*
%TD*%
D18*
%TO.C,R2*%
X75380000Y-29500000D03*
D19*
X83000000Y-29500000D03*
%TD*%
D12*
%TO.C,SW20*%
X76500001Y-101442194D03*
D13*
X77000001Y-96292194D03*
D14*
X82000001Y-101442194D03*
D12*
X87500001Y-101442194D03*
D15*
X82000001Y-107342194D03*
X87000001Y-105242194D03*
%TD*%
D16*
%TO.C,D13*%
X72500000Y-92000000D03*
D17*
X72500000Y-84380000D03*
%TD*%
D12*
%TO.C,SW13*%
X57500001Y-82442194D03*
D13*
X58000001Y-77292194D03*
D14*
X63000001Y-82442194D03*
D12*
X68500001Y-82442194D03*
D15*
X63000001Y-88342194D03*
X68000001Y-86242194D03*
%TD*%
D20*
%TO.C,JP1*%
X178250000Y-44300000D03*
D21*
X178250000Y-43000000D03*
%TD*%
D16*
%TO.C,D11*%
X148500000Y-68000000D03*
D17*
X148500000Y-60380000D03*
%TD*%
D16*
%TO.C,D5*%
X148500000Y-49000000D03*
D17*
X148500000Y-41380000D03*
%TD*%
D23*
%TO.C,U2*%
X172750000Y-38460000D03*
X172750000Y-41000000D03*
X172750000Y-43540000D03*
X172750000Y-46080000D03*
X172750000Y-48620000D03*
X172750000Y-51160000D03*
X172750000Y-53700000D03*
X172750000Y-56240000D03*
X172750000Y-58780000D03*
X172750000Y-61320000D03*
X172750000Y-63860000D03*
X172750000Y-66400000D03*
X187990000Y-66400000D03*
X187990000Y-63860000D03*
X187990000Y-61320000D03*
X187990000Y-58780000D03*
X187990000Y-56240000D03*
X187990000Y-53700000D03*
X187990000Y-51160000D03*
X187990000Y-48620000D03*
X187990000Y-46080000D03*
X187990000Y-43540000D03*
X187990000Y-41000000D03*
D16*
X187990000Y-38460000D03*
D23*
X172750000Y-35920000D03*
X187990000Y-35920000D03*
%TD*%
D16*
%TO.C,D25*%
X172940000Y-112500000D03*
D17*
X180560000Y-112500000D03*
%TD*%
D12*
%TO.C,SW28*%
X162993667Y-125429863D03*
D13*
X165852920Y-121117419D03*
D14*
X167849879Y-128011957D03*
D12*
X172706091Y-130594051D03*
D15*
X165079997Y-133221348D03*
X170480625Y-133714516D03*
%TD*%
D12*
%TO.C,SW4*%
X114500000Y-34500000D03*
D13*
X115000000Y-29350000D03*
D14*
X120000000Y-34500000D03*
D12*
X125500000Y-34500000D03*
D15*
X120000000Y-40400000D03*
X125000000Y-38300000D03*
%TD*%
D22*
%TO.C,REF\u002A\u002A*%
X182500000Y-121000000D03*
%TD*%
D12*
%TO.C,SW1*%
X57500000Y-44650000D03*
D13*
X58000000Y-39500000D03*
D14*
X63000000Y-44650000D03*
D12*
X68500000Y-44650000D03*
D15*
X63000000Y-50550000D03*
X68000000Y-48450000D03*
%TD*%
D12*
%TO.C,SW17*%
X133500001Y-77442194D03*
D13*
X134000001Y-72292194D03*
D14*
X139000001Y-77442194D03*
D12*
X144500001Y-77442194D03*
D15*
X139000001Y-83342194D03*
X144000001Y-81242194D03*
%TD*%
D16*
%TO.C,D22*%
X129500000Y-103000000D03*
D17*
X129500000Y-95380000D03*
%TD*%
D12*
%TO.C,SW3*%
X95500001Y-39442194D03*
D13*
X96000001Y-34292194D03*
D14*
X101000001Y-39442194D03*
D12*
X106500001Y-39442194D03*
D15*
X101000001Y-45342194D03*
X106000001Y-43242194D03*
%TD*%
D12*
%TO.C,SW27*%
X139500001Y-121442194D03*
D13*
X140000001Y-116292194D03*
D14*
X145000001Y-121442194D03*
D12*
X150500001Y-121442194D03*
D15*
X145000001Y-127342194D03*
X150000001Y-125242194D03*
%TD*%
D16*
%TO.C,D17*%
X148500000Y-87000000D03*
D17*
X148500000Y-79380000D03*
%TD*%
D24*
%TO.C,D30*%
X62750000Y-33613000D03*
D25*
X62750000Y-31454000D03*
X62750000Y-29295000D03*
X62750000Y-27136000D03*
%TD*%
D16*
%TO.C,D6*%
X168000000Y-54000000D03*
D17*
X168000000Y-46380000D03*
%TD*%
D16*
%TO.C,D19*%
X72500000Y-108810000D03*
D17*
X72500000Y-101190000D03*
%TD*%
D16*
%TO.C,D16*%
X129500000Y-82000000D03*
D17*
X129500000Y-74380000D03*
%TD*%
D16*
%TO.C,D27*%
X148810000Y-111500000D03*
D17*
X141190000Y-111500000D03*
%TD*%
D16*
%TO.C,D4*%
X129500000Y-44500000D03*
D17*
X129500000Y-36880000D03*
%TD*%
D22*
%TO.C,REF\u002A\u002A*%
X180250000Y-58500000D03*
%TD*%
%TO.C,REF\u002A\u002A*%
X118500000Y-104000000D03*
%TD*%
D12*
%TO.C,SW2*%
X76500000Y-44500000D03*
D13*
X77000000Y-39350000D03*
D14*
X82000000Y-44500000D03*
D12*
X87500000Y-44500000D03*
D15*
X82000000Y-50400000D03*
X87000000Y-48300000D03*
%TD*%
D26*
%TO.C,D29*%
X176500000Y-137500000D03*
D27*
X182817266Y-133238950D03*
%TD*%
D12*
%TO.C,SW12*%
X152500001Y-63442194D03*
D13*
X153000001Y-58292194D03*
D14*
X158000001Y-63442194D03*
D12*
X163500001Y-63442194D03*
D15*
X158000001Y-69342194D03*
X163000001Y-67242194D03*
%TD*%
D16*
%TO.C,D9*%
X110500000Y-68000000D03*
D17*
X110500000Y-60380000D03*
%TD*%
D12*
%TO.C,SW5*%
X133500000Y-39500000D03*
D13*
X134000000Y-34350000D03*
D14*
X139000000Y-39500000D03*
D12*
X144500000Y-39500000D03*
D15*
X139000000Y-45400000D03*
X144000000Y-43300000D03*
%TD*%
D16*
%TO.C,D12*%
X167500000Y-72500000D03*
D17*
X167500000Y-64880000D03*
%TD*%
D16*
%TO.C,D14*%
X91500000Y-92000000D03*
D17*
X91500000Y-84380000D03*
%TD*%
D16*
%TO.C,D7*%
X72500000Y-73000000D03*
D17*
X72500000Y-65380000D03*
%TD*%
D12*
%TO.C,SW18*%
X152500001Y-82442194D03*
D13*
X153000001Y-77292194D03*
D14*
X158000001Y-82442194D03*
D12*
X163500001Y-82442194D03*
D15*
X158000001Y-88342194D03*
X163000001Y-86242194D03*
%TD*%
D12*
%TO.C,SW11*%
X133500000Y-58500000D03*
D13*
X134000000Y-53350000D03*
D14*
X139000000Y-58500000D03*
D12*
X144500000Y-58500000D03*
D15*
X139000000Y-64400000D03*
X144000000Y-62300000D03*
%TD*%
D12*
%TO.C,SW10*%
X114500000Y-53500000D03*
D13*
X115000000Y-48350000D03*
D14*
X120000000Y-53500000D03*
D12*
X125500000Y-53500000D03*
D15*
X120000000Y-59400000D03*
X125000000Y-57300000D03*
%TD*%
D12*
%TO.C,SW23*%
X133500001Y-96442194D03*
D13*
X134000001Y-91292194D03*
D14*
X139000001Y-96442194D03*
D12*
X144500001Y-96442194D03*
D15*
X139000001Y-102342194D03*
X144000001Y-100242194D03*
%TD*%
D16*
%TO.C,D21*%
X110500000Y-103500000D03*
D17*
X110500000Y-95880000D03*
%TD*%
D12*
%TO.C,SW15*%
X95500001Y-77442194D03*
D13*
X96000001Y-72292194D03*
D14*
X101000001Y-77442194D03*
D12*
X106500001Y-77442194D03*
D15*
X101000001Y-83342194D03*
X106000001Y-81242194D03*
%TD*%
D12*
%TO.C,SW21*%
X95500001Y-96442194D03*
D13*
X96000001Y-91292194D03*
D14*
X101000001Y-96442194D03*
D12*
X106500001Y-96442194D03*
D15*
X101000001Y-102342194D03*
X106000001Y-100242194D03*
%TD*%
D12*
%TO.C,SW29*%
X182593695Y-139171350D03*
D13*
X187142835Y-136706026D03*
D14*
X185669256Y-143731057D03*
D12*
X188744817Y-148290764D03*
D15*
X180777934Y-147030295D03*
X185314878Y-150001178D03*
%TD*%
D12*
%TO.C,SW7*%
X57500000Y-63500000D03*
D13*
X58000000Y-58350000D03*
D14*
X63000000Y-63500000D03*
D12*
X68500000Y-63500000D03*
D15*
X63000000Y-69400000D03*
X68000000Y-67300000D03*
%TD*%
D16*
%TO.C,D26*%
X130000000Y-111500000D03*
D17*
X122380000Y-111500000D03*
%TD*%
D16*
%TO.C,D24*%
X167500000Y-110500000D03*
D17*
X167500000Y-102880000D03*
%TD*%
D18*
%TO.C,R3*%
X75380000Y-27000000D03*
D19*
X83000000Y-27000000D03*
%TD*%
D16*
%TO.C,D20*%
X91500000Y-108810000D03*
D17*
X91500000Y-101190000D03*
%TD*%
D12*
%TO.C,SW24*%
X152500001Y-101442194D03*
D13*
X153000001Y-96292194D03*
D14*
X158000001Y-101442194D03*
D12*
X163500001Y-101442194D03*
D15*
X158000001Y-107342194D03*
X163000001Y-105242194D03*
%TD*%
D16*
%TO.C,D15*%
X110500000Y-87000000D03*
D17*
X110500000Y-79380000D03*
%TD*%
M02*
