M48
; DRILL file {KiCad 9.0.1} date 2025-07-07T00:05:19+0200
; FORMAT={-:-/ absolute / metric / decimal}
; #@! TF.CreationDate,2025-07-07T00:05:19+02:00
; #@! TF.GenerationSoftware,Kicad,Pcbnew,9.0.1
; #@! TF.FileFunction,NonPlated,1,2,NPTH
FMAT,2
METRIC
; #@! TA.AperFunction,NonPlated,NPTH,ComponentDrill
T1C1.702
; #@! TA.AperFunction,NonPlated,NPTH,ComponentDrill
T2C2.200
; #@! TA.AperFunction,NonPlated,NPTH,ComponentDrill
T3C5.000
%
G90
G05
T1
X57.5Y-44.65
X57.5Y-63.5
X57.5Y-101.5
X57.5Y-82.442
X68.5Y-44.65
X68.5Y-63.5
X68.5Y-101.5
X68.5Y-82.442
X76.5Y-44.5
X76.5Y-82.2
X76.5Y-63.442
X76.5Y-101.442
X87.5Y-44.5
X87.5Y-82.2
X87.5Y-63.442
X87.5Y-101.442
X95.5Y-39.442
X95.5Y-58.442
X95.5Y-77.442
X95.5Y-96.442
X106.5Y-39.442
X106.5Y-58.442
X106.5Y-77.442
X106.5Y-96.442
X114.5Y-34.5
X114.5Y-53.5
X114.5Y-72.442
X114.5Y-91.442
X120.5Y-121.442
X125.5Y-34.5
X125.5Y-53.5
X125.5Y-72.442
X125.5Y-91.442
X131.5Y-121.442
X133.5Y-39.5
X133.5Y-58.5
X133.5Y-77.442
X133.5Y-96.442
X139.5Y-121.442
X144.5Y-39.5
X144.5Y-58.5
X144.5Y-77.442
X144.5Y-96.442
X150.5Y-121.442
X152.5Y-44.5
X152.5Y-63.442
X152.5Y-82.442
X152.5Y-101.442
X162.994Y-125.43
X163.5Y-44.5
X163.5Y-63.442
X163.5Y-82.442
X163.5Y-101.442
X172.706Y-130.594
X174.282Y-102.818
X182.594Y-139.171
X185.282Y-102.818
X188.745Y-148.291
T2
X90.25Y-33.75
X118.5Y-104.0
X180.25Y-58.5
X182.5Y-121.0
T3
X63.0Y-44.65
X63.0Y-63.5
X63.0Y-101.5
X63.0Y-82.442
X82.0Y-44.5
X82.0Y-82.2
X82.0Y-63.442
X82.0Y-101.442
X101.0Y-39.442
X101.0Y-58.442
X101.0Y-77.442
X101.0Y-96.442
X120.0Y-34.5
X120.0Y-53.5
X120.0Y-72.442
X120.0Y-91.442
X126.0Y-121.442
X139.0Y-39.5
X139.0Y-58.5
X139.0Y-77.442
X139.0Y-96.442
X145.0Y-121.442
X158.0Y-44.5
X158.0Y-63.442
X158.0Y-82.442
X158.0Y-101.442
X167.85Y-128.012
X179.782Y-102.818
X185.669Y-143.731
M30
